<svg xmlns="http://www.w3.org/2000/svg" viewBox="0 0 1005.71 788.53"><defs><style>.cls-1{fill:none;stroke:#3991c9;stroke-linecap:round;stroke-linejoin:round;stroke-width:24px;}.cls-2{fill:#3991c9;}</style></defs><title>ARL</title><g id="Layer_2" data-name="Layer 2"><g id="svg8"><path id="path1650" class="cls-1" d="M533.86,293.76c111.12,2.36,201.2,35.51,201.2,74S645,435.67,533.86,433.31s-201.2-35.51-201.2-74S422.73,291.4,533.86,293.76Z"/><path id="path1650-3" class="cls-1" d="M367.31,401.56c-54.91-48.67-27-52.77-33.07,37.63,0,38.54,90.08,71.69,201.21,74s201.21-27,201.21-65.51c1-113.46.16-60.17-37.11-41.17-37.21,18.84-100.4,29.32-168.13,27.88C466.2,433.06,405,420.8,367.31,401.56Z"/><path id="rect1685" class="cls-2" d="M541,0h0c17.57,0,31.82,76.21,31.82,170.21h0c0,94-14.25,170.21-31.82,170.21h0c-17.57,0-31.82-76.21-31.82-170.21h0C509.17,76.21,523.42,0,541,0Z"/><path id="path1687" class="cls-1" d="M50.86,776.53l296.86-220C738,705.8,1046.23,413.65,745.43,275.1L993.71,76.53"/><path id="path1687-7" class="cls-1" d="M12,668.53,260.57,491.39c-207.09-190.54,240.77-327.46,374.29-260L920.57,20"/></g></g></svg>