<svg xmlns="http://www.w3.org/2000/svg" viewBox="0 0 909.37 998.23"><defs><style>.cls-1,.cls-2,.cls-3,.cls-4{fill:none;stroke:#3991c9;}.cls-1,.cls-2,.cls-3{stroke-linecap:round;}.cls-1,.cls-2,.cls-4{stroke-width:10px;}.cls-2,.cls-3,.cls-4{stroke-linejoin:round;}.cls-3{stroke-width:24px;}.cls-5{fill:#3991c9;}</style></defs><title>AT</title><g id="Layer_2" data-name="Layer 2"><g id="svg8"><g id="g1012"><path id="path926" class="cls-1" d="M284.25,178.75l40.49,139.83"/><path id="path928" class="cls-1" d="M362.68,198.83l34.6,119.49"/><path id="path930" class="cls-1" d="M423.38,138.28,476.1,320.35"/><path id="path932" class="cls-1" d="M485.82,69.53l72,248.75"/><path id="path934" class="cls-1" d="M595.17,184.07l39.31,135.76"/><path id="path936" class="cls-2" d="M197.87,119.75l72,248.75,441.81.3"/></g><path id="rect1014" class="cls-3" d="M138.48,12H622.09c31.23,0,63.59,24.32,72.28,54.32L895.21,759.84c8.69,30-9.59,54.32-40.82,54.32H370.77c-31.23,0-63.59-24.32-72.28-54.32L97.66,66.32C89,36.32,107.24,12,138.48,12Z"/><path id="path1008" class="cls-4" d="M519.11,497.42c-78.13,0-112,46.83-75.71,104.59S572.51,706.59,650.64,706.59s112-46.83,75.71-104.59S597.25,497.42,519.11,497.42Z"/><path id="path1008-5-5-6" class="cls-5" d="M717,571.41c-51.25-49.62-134.33-86-204.55-89.67l73.26,115.17Z"/><path id="rect1014-1" class="cls-3" d="M55,184.07c-31.33,0-49.53,24.22-40.82,54.32L215,931.91c8.71,30.09,41,54.32,72.28,54.32H770.91c31.33,0,49.53-24.22,40.82-54.32l-34.1-117.75H370.77c-31.33,0-63.56-24.22-72.28-54.32L131.75,184.07Z"/></g></g></svg>