<svg xmlns="http://www.w3.org/2000/svg" viewBox="0 0 550.84 992"><defs><style>.cls-1,.cls-2{fill:none;stroke:#3991c9;stroke-linecap:round;stroke-linejoin:round;}.cls-1{stroke-width:13px;}.cls-2{stroke-width:16px;}</style></defs><title>BI</title><g id="Layer_2" data-name="Layer 2"><g id="svg8"><rect id="rect4182" class="cls-1" x="158.89" y="122.76" width="158.67" height="300.63"/><path id="rect4182-6" class="cls-1" d="M174.2,448.41h128a15.31,15.31,0,0,1,15.31,15.31h0A15.31,15.31,0,0,1,302.25,479h-128a15.31,15.31,0,0,1-15.31-15.31h0A15.31,15.31,0,0,1,174.2,448.41Z"/><path id="rect4182-7" class="cls-2" d="M180,8V122.76H292.29V8Z"/><path id="rect4182-6-5" class="cls-1" d="M209.43,481h59.31c3.66,0,6.63,14.81,6.63,33.08h0c0,18.27-3,33.08-6.63,33.08H209.43c-3.66,0-6.63-14.81-6.63-33.08h0C202.8,495.84,205.77,481,209.43,481Z"/><path id="path4249" class="cls-1" d="M125.2,678.85l241,1.11"/><path id="rect4251" class="cls-1" d="M161.69,768.41H315.38c3.66,0,6.63,9.41,6.63,21h0c0,11.6-3,21-6.63,21H161.69c-3.66,0-6.63-9.41-6.63-21h0C155.06,777.82,158,768.41,161.69,768.41Z"/><path id="rect4253" class="cls-2" d="M318.7,319.51l-1.15,78.87c164,42,203.19,98.9,122.77,278.28l-.24,2.93H333.31c-4.4,0-7.94,14.29-7.94,32.05v64.48c0,17.76,3.54,32.08,7.94,32.08h106.5c-2.89,3.58-5,16.46-5,32v9c0,18.32,2.95,33.08,6.62,33.08H14.65C11,882.29,8,897.05,8,915.38v35.57C8,969.27,11,984,14.65,984H514.4c7-51.28,15.52-133.5,0-176.89h0c8.79-36.38.65-93.64-15.71-127.53h-1l2.32-1.83c109.29-212.54-5-287.58-181.33-358.24Z"/></g></g></svg>