<svg xmlns="http://www.w3.org/2000/svg" viewBox="0 0 707.38 720.65"><defs><style>.cls-1{fill:#3991c9;}.cls-2{fill:none;stroke:#3991c9;stroke-miterlimit:172.31;stroke-width:14px;}</style></defs><title>BM</title><g id="Layer_2" data-name="Layer 2"><g id="svg8"><g id="BM_-_Teknik_Biomedik" data-name="BM - Teknik Biomedik"><path class="cls-1" d="M317.85,1.08h32.84l3.1,197.76s-162.72,12.24-157,160.85c4.83,125.63,120.69,152.68,141.82,152.68h11.58l1.51,199.26H317.47l-17.11-79s-30.7-5-35.22-8a10,10,0,0,0-8.56-1.51l-50.32,56.36-55.35-29.19,21.64-77s-27.18-24.21-30.7-29.21l-3.52-5-76,23.65L29.69,509.85l56.86-59.37S79,425.32,78,419.78s-3-14.59-3-14.59L0,389.09V325.68l75.48-20.13s5-29.68,8.55-36.23,5-9,5-9L32.16,206.93l31.7-56.85,76.48,22.14S158,152.58,166,148.08l8-4.53-24.66-77,54.35-32.71L260.61,91.2a162,162,0,0,1,26.16-10.06c13.09-3.52,15.1-4.53,15.1-4.53Z"/><rect class="cls-1" x="282.2" y="323.13" width="196.86" height="66.5"/><rect class="cls-1" x="345.8" y="256.36" width="69.66" height="200.03"/><path class="cls-2" d="M340.58,126.94c61,3.26,58.86-7.74,102.76-48.39-3.68-18.84-3.9-46.57-25.08-58.12C382.85,1.12,341.84,8.31,341.84,8.31"/><path class="cls-2" d="M78.18,346.65s36.88-16.9,44.79-62"/><path class="cls-2" d="M444.17,643.85c29.23,22.49,59.14,31.09,101.7,11,52.88-25,58.63-80.72,55.18-112.55q-.08-.73-.21-1.5c-14.65,0-31.49-2.08-50.9-6.9C450.53,509.2,452.58,601.08,444.17,643.85Z"/><path class="cls-2" d="M615.27,350.47c9,3.32,19.15,7,29.23,11.52C720.22,318.37,703,259.62,679.23,213.7c-18.35-35.51-51.66-38.15-83-32.86-10.12,25.41-25.3,45.14-27.52,61.59C565.24,268.16,578.29,336.85,615.27,350.47Z"/><path class="cls-2" d="M557.37,190.33c11.6-3.28,25-7.16,38.85-9.49,5.7-14.3,9.79-30.41,9.06-48.75-2-50.92-56-70.5-56-70.5S490.21,35.46,444.79,77.21l-1.45,1.34c4.12,21.13,5,40.14,11.71,52.16C467.69,153.45,519.43,201.08,557.37,190.33Z"/><path class="cls-2" d="M97.69,539.14c7.63-25,25.14-36.67,25.14-36.67s19.54-35.25-1.15-76.17"/><path class="cls-2" d="M317.47,711.63C375,722.54,422.89,687,439.22,659.36c2.16-3.65,3.67-9,5-15.51a265.61,265.61,0,0,1-21.31-18.6c-36.84-35.24-55.22-43.17-105.82-31.83"/><path class="cls-2" d="M644.5,362a239.94,239.94,0,0,1-29.65,14.28c-107.55,43.67-20,131.43-14,164.49,71.77-.22,90.66-52.87,98.49-100C706.46,397.9,675.84,376,644.5,362Z"/><line class="cls-2" x1="173.76" y1="50.68" x2="234.31" y2="135.26"/><line class="cls-2" x1="369.33" y1="2.8" x2="372.74" y2="131.78"/><line class="cls-2" x1="400.47" y1="13.73" x2="400.47" y2="120.8"/><line class="cls-2" x1="522.7" y1="54.54" x2="463.1" y2="140.89"/><line class="cls-2" x1="560.92" y1="68.85" x2="491.21" y2="168.54"/><line class="cls-2" x1="589.94" y1="98.33" x2="527.21" y2="180.75"/><line class="cls-2" x1="671.8" y1="218.54" x2="569.13" y2="243.48"/><line class="cls-2" x1="690.59" y1="254.43" x2="571.38" y2="282.62"/><line class="cls-2" x1="692.29" y1="295.54" x2="589.94" y2="315.49"/><line class="cls-2" x1="692.52" y1="423.12" x2="592.74" y2="388.59"/><line class="cls-2" x1="688.45" y1="463.34" x2="573.02" y2="422.6"/><line class="cls-2" x1="669.78" y1="501.89" x2="567.14" y2="463.34"/><line class="cls-2" x1="586.72" y1="617.91" x2="537.88" y2="531.35"/><line class="cls-2" x1="559.86" y1="651.12" x2="494.02" y2="532.72"/><line class="cls-2" x1="516.66" y1="661.98" x2="462.29" y2="559.35"/><line class="cls-2" x1="381.41" y1="704.3" x2="382.85" y2="599.77"/><line class="cls-2" x1="341.55" y1="713.25" x2="343.97" y2="592.07"/><line class="cls-2" x1="168.27" y1="657.22" x2="234.46" y2="575.71"/></g></g></g></svg>