<svg xmlns="http://www.w3.org/2000/svg" viewBox="0 0 819.92 513.83"><defs><style>.cls-1,.cls-2,.cls-3{fill:#3991c9;}.cls-1,.cls-3{stroke:#3991c9;stroke-linecap:round;stroke-linejoin:round;}.cls-1{stroke-width:3.69px;}.cls-3{stroke-width:0.73px;}</style></defs><title>DKV</title><g id="Layer_2" data-name="Layer 2"><g id="svg8"><g id="layer1"><g id="g883"><g id="g2731"><g id="g2820"><g id="g4274"><g id="g5448"><path id="rect5381" class="cls-1" d="M169.86,9.11c-2.32,0-3.49,19.06-3.72,42.67l-2.34,238.7c14.16-.32,32.63-12,83-43.41l3-177.8c.37-22,1.27-39.67,3.4-39.69l530.48-6c2.14,0,4.06,17.64,4.31,39.61l3.73,327.8c.25,22-1.27,39.68-3.4,39.71l-530.48,6c-1.93-93.78,4.77-111.34-84.84-42.94-3,21.43-1.64,45.53,1.92,65.64l639.35-7.27c2.32,0,4-19.06,3.72-42.67l-4.15-365c-.27-23.61-2.37-42.6-4.69-42.57Z"/><g id="text5390"><path id="path5392" class="cls-2" d="M301.43,116.2l65.2-.74q31.82-.36,47.85,9.74t16.25,30l.94,82.71q.23,19.86-15.57,30.32T368.49,279l-65.2.74Zm66,139.45q10.48-.12,15.87-3.92,5.78-3.8,5.68-12.22l-1-85q-.1-8.41-6-12.08-5.48-3.68-16-3.56l-21.73.25,1.33,116.82Z"/><path id="path5394" class="cls-2" d="M459.1,114.41l42.69-.49.78,68.92,53.55-69.54,42.69-.49-50.16,60.62,52.79,102.92-44.63.51L519.9,204.39l-16.84,21,.59,52.1L461,278Z"/><path id="path5396" class="cls-2" d="M608.54,112.71l43.08-.49L681,238.77h.78l26.5-127.19,39.2-.45-39.28,164-56.66.64Z"/></g><path id="rect5399" class="cls-3" d="M5.64,472.32l82.28,31.5c1.62.62,2.12,3.25,1.11,5.88h0c-1,2.63-3.14,4.25-4.76,3.63L2,481.84C.38,481.22-.12,478.58.89,476h0C1.89,473.33,4,471.7,5.64,472.32Z"/><path id="path5401" class="cls-2" d="M23.14,456l63.19,23.59c27.22-37.69,53.87-81.9,75.87-109l88.27-62.65c13.11-17.94,9.93-27.47-5.78-29.35L129.07,340.36l-.51-68.64c1.11-19.51-3.44-21.48-15.7-12.57C50.34,307.63,37.29,391.05,23.14,456Z"/><path id="rect5420" class="cls-2" d="M465.18,355.19l251.35-59.47c2.25-.53,5.48,5,7.2,12.25l.33,1.39c1.73,7.3,1.3,13.65-.95,14.18L471.77,383c-2.25.53-5.48-5-7.2-12.25l-.33-1.39C462.51,362.07,462.93,355.72,465.18,355.19Z"/><path id="rect5437" class="cls-2" d="M735.13,291.3l20.48-6.61c2.62-.85,6.5,3.91,8.67,10.62h0c2.17,6.71,1.8,12.84-.82,13.69L743,315.6c-2.62.85-6.5-3.91-8.67-10.62h0C732.14,298.27,732.51,292.14,735.13,291.3Z"/></g></g></g></g></g></g></g></g></svg>