<svg xmlns="http://www.w3.org/2000/svg" viewBox="0 0 838.78 1010.65"><defs><style>.cls-1,.cls-3,.cls-5{fill:#3991c9;}.cls-1,.cls-2,.cls-3,.cls-4{stroke:#3991c9;}.cls-1,.cls-2{stroke-linecap:round;}.cls-1,.cls-2,.cls-4{stroke-linejoin:round;}.cls-2,.cls-4{fill:none;stroke-width:12px;}.cls-3{stroke-width:0.7px;}</style></defs><title>GT</title><g id="Layer_2" data-name="Layer 2"><g id="svg8"><path id="rect3458" class="cls-1" d="M108.92,654.57a7.21,7.21,0,0,0-7.23,7.23v35.88a7.22,7.22,0,0,0,7.23,7.23h44.21l-77.74,298c-1,4,1.43,7.23,5.57,7.23h30.5a10.16,10.16,0,0,0,9.35-7.23l77.74-298h11.23v298a7.22,7.22,0,0,0,7.23,7.23h31a7.21,7.21,0,0,0,7.23-7.23v-298h11.23l77.74,298a10.16,10.16,0,0,0,9.35,7.23H384c4.14,0,6.64-3.22,5.59-7.23l-77.74-298h39.57a7.21,7.21,0,0,0,7.23-7.23V661.8a7.22,7.22,0,0,0-7.23-7.23Z"/><rect id="rect3502" class="cls-2" x="71.35" y="528.55" width="325.91" height="114.95" rx="43.37" ry="43.37"/><rect id="rect3504" class="cls-2" x="82.4" y="151.26" width="147.78" height="375.87" rx="43.64" ry="43.64"/><rect id="rect3504-4" class="cls-2" x="230.18" y="151.26" width="147.78" height="375.87" rx="43.64" ry="43.64"/><path id="path3523" class="cls-3" d="M79.19,242.28C9.77,248.94-57,373.49,80.26,425.4"/><path id="path3525" class="cls-4" d="M167.39,151.46l-.76-100C190.86-10.23,277.29-7.6,299.15,50v100"/><path id="path3527" class="cls-5" d="M440.46,315.14a23,23,0,0,0,.17,46h0a23,23,0,1,0,0-46h-.18Z"/><path id="path3527-5" class="cls-5" d="M515.49,315.14a23,23,0,0,0,.17,46h0a23,23,0,1,0,0-46h-.18Z"/><path id="path3527-5-6" class="cls-5" d="M590.52,315.14a23,23,0,0,0,.17,46h0a23,23,0,1,0,0-46h-.18Z"/><path id="path3527-5-6-3" class="cls-5" d="M665.55,315.14a23,23,0,0,0,.17,46h0a23,23,0,1,0,0-46h-.18Z"/><path id="path3527-5-6-3-0" class="cls-5" d="M740.58,315.14a23,23,0,0,0,.17,46h0a23,23,0,0,0,0-46h-.18Z"/><path id="path3527-5-6-3-0-5" class="cls-5" d="M815.61,315.14a23,23,0,0,0,.17,46h0a23,23,0,1,0,0-46h-.18Z"/></g></g></svg>