<svg xmlns="http://www.w3.org/2000/svg" viewBox="0 0 704.75 645.7"><defs><style>.cls-1{fill:#3991c9;}</style></defs><title>KA</title><g id="Layer_2" data-name="Layer 2"><g id="svg8"><g id="KA_-_Teknik_Perkeretaapian" data-name="KA - Teknik Perkeretaapian"><polygon class="cls-1" points="62.48 644.78 133.11 645.7 250.81 433.83 214.74 433.83 62.48 644.78"/><polygon class="cls-1" points="569.81 645.24 642.27 644.33 489.09 434.29 452.87 434.29 569.81 645.24"/><polygon class="cls-1" points="563.79 468.71 139.41 469.37 162 444.23 543.09 444.23 563.79 468.71"/><polygon class="cls-1" points="624.73 537.71 77.16 538.56 106.3 506.59 598.02 506.59 624.73 537.71"/><polygon class="cls-1" points="704.75 626.43 0 627.59 37.51 583.64 670.38 583.64 704.75 626.43"/><path class="cls-1" d="M500.44,24.3H199.83a54.34,54.34,0,0,0-54.34,54.34V372.38a54.34,54.34,0,0,0,54.34,54.34H500.44a54.34,54.34,0,0,0,54.31-54.34V78.64A54.34,54.34,0,0,0,500.44,24.3ZM211.92,372.11a23.32,23.32,0,1,1,23.31-23.33h0A23.32,23.32,0,0,1,211.92,372.11Zm280.34,0a23.32,23.32,0,1,1,23.32-23.32,23.32,23.32,0,0,1-23.32,23.32ZM515.58,197a36.46,36.46,0,0,1-36.46,36.46H220.47A36.46,36.46,0,0,1,184,197V131a36.46,36.46,0,0,1,36.46-36.46H479.12A36.46,36.46,0,0,1,515.58,131h0Z"/><rect class="cls-1" x="212.2" width="280.34" height="39.9" rx="11.04" ry="11.04"/></g></g></g></svg>