<svg xmlns="http://www.w3.org/2000/svg" viewBox="0 0 937.71 986.67"><defs><style>.cls-1,.cls-2{fill:none;stroke:#3991c9;stroke-width:18px;}.cls-1{stroke-linecap:round;stroke-linejoin:round;}</style></defs><title>KI</title><g id="Layer_2" data-name="Layer 2"><g id="svg8"><g id="layer1"><g id="g883"><g id="g1200"><g id="g864"><g id="g1069"><circle id="path983" class="cls-1" cx="473.51" cy="108.55" r="99.55" transform="translate(359.07 580.67) rotate(-89.29)"/><circle id="path983-1" class="cls-1" cx="468.87" cy="576.81" r="99.55" transform="translate(-113.73 1038.45) rotate(-89.29)"/><path id="path1038" class="cls-2" d="M476.25,208.14l-3.33,266.77"/><circle id="path983-0" class="cls-1" cx="473.51" cy="108.55" r="99.55" transform="translate(359.07 580.67) rotate(-89.29)"/><circle id="path983-1-9" class="cls-1" cx="468.87" cy="576.81" r="99.55" transform="translate(-113.73 1038.45) rotate(-89.29)"/><path id="path1038-0" class="cls-2" d="M476.25,208.14l-3.33,266.77"/></g><circle id="path983-8-9" class="cls-1" cx="108.55" cy="868.37" r="99.55" transform="translate(-524.99 264.65) rotate(-39.25)"/><circle id="path983-8" class="cls-1" cx="829.16" cy="878.11" r="99.55" transform="translate(-376.49 948.85) rotate(-50)"/><circle id="path983-1-99" class="cls-1" cx="469.67" cy="578.03" r="99.55" transform="translate(-275.02 566.27) rotate(-50)"/><path id="path1038-01" class="cls-1" d="M653.82,732.46,546,645.69"/><circle id="path983-0-1" class="cls-1" cx="829.16" cy="878.11" r="99.55" transform="translate(-376.49 948.85) rotate(-50)"/><path id="path1038-01-9" class="cls-2" d="M183.12,802.3,389.7,633.48"/><circle id="path983-0-1-0" class="cls-1" cx="108.55" cy="868.37" r="99.55" transform="translate(-524.99 264.65) rotate(-39.25)"/><path id="path1038-0-6-0" class="cls-2" d="M183.12,802.3,389.7,633.48"/><path id="path1038-01-0" class="cls-1" d="M754.27,807.23l-34.95-27.4"/></g></g></g></g></g></g></svg>