<svg xmlns="http://www.w3.org/2000/svg" viewBox="0 0 871.17 993.89"><defs><style>.cls-1{fill:none;stroke:#3991c9;stroke-width:18px;}</style></defs><title>MA</title><g id="Layer_2" data-name="Layer 2"><g id="svg8"><g id="layer1"><g id="g883"><g id="g2147"><g id="g2100"><path id="path1412" class="cls-1" d="M62,833.26l764.28,4.69"/><path id="path1414" class="cls-1" d="M122.94,786.37,62,833.26l56.27,46.89"/><path id="path1414-4" class="cls-1" d="M765.32,791.06l61,46.89L770,884.84"/><path id="path1412-2" class="cls-1" d="M438.36,993.85l4-979.13"/><path id="path1414-4-7" class="cls-1" d="M395.82,75.35l46.89-61L489.6,70.66"/><path id="path1412-2-6" class="cls-1" d="M435,836.37C717.75,767.24,797.75,434.6,817,23"/><path id="path1414-4-7-4" class="cls-1" d="M770.48,83.64l46.89-61L864.26,79"/><path id="path1412-2-6-5" class="cls-1" d="M436.13,833.26c-282.7-69.14-362.71-401.78-382-813.35"/><path id="path1414-4-7-4-4" class="cls-1" d="M100.69,80.53l-46.89-61L6.91,75.84"/></g><path id="path2102" class="cls-1" d="M313.66,583.33l250.67-2.26"/><path id="path2102-9" class="cls-1" d="M319.24,442.18h243.9"/><path id="path2102-9-2" class="cls-1" d="M320.32,303.3h243.9"/></g></g></g></g></g></svg>