<svg xmlns="http://www.w3.org/2000/svg" viewBox="0 0 1019.71 982.77"><defs><style>.cls-1,.cls-2,.cls-3{fill:none;stroke:#3991c9;}.cls-1{stroke-width:18px;}.cls-2{stroke-width:14px;}.cls-3{stroke-width:10px;}</style></defs><title>MS</title><g id="Layer_2" data-name="Layer 2"><g id="svg8"><g id="g1853"><circle id="path1685" class="cls-1" cx="713.64" cy="301.65" r="87.75"/><path id="path1685-5" class="cls-1" d="M716.23,9a32.68,32.68,0,0,0-32.75,32.75V65.23a236.82,236.82,0,0,0-104.82,42.49L560.08,89a32.69,32.69,0,0,0-46.33-.19l-5.37,5.33a32.69,32.69,0,0,0-.19,46.33l18.52,18.67a239.59,239.59,0,0,0-45,112.21l-29.52,1.05a32.68,32.68,0,0,0-31.56,33.91l.27,7.57a32.68,32.68,0,0,0,33.89,31.58l28.83-1a239.44,239.44,0,0,0,51.28,110.2l-19.63,23.25A32.69,32.69,0,0,0,519.18,524l5.79,4.88A32.69,32.69,0,0,0,571.13,525l18.54-22a236.79,236.79,0,0,0,85.09,33.56V566.1a32.68,32.68,0,0,0,32.75,32.75h7.58a32.68,32.68,0,0,0,32.75-32.75V538.53a236.77,236.77,0,0,0,103.53-39.68l19.87,20a32.69,32.69,0,0,0,46.33.19l5.37-5.33a32.69,32.69,0,0,0,.19-46.33l-18.58-18.74a239.54,239.54,0,0,0,47.79-112.23l26.76-1a32.69,32.69,0,0,0,31.58-33.91l-.27-7.57a32.68,32.68,0,0,0-33.91-31.56l-24.71.88A239.47,239.47,0,0,0,900,149l16-19a32.69,32.69,0,0,0-3.89-46.16l-5.79-4.89a32.69,32.69,0,0,0-46.16,3.91l-14.85,17.58a236.77,236.77,0,0,0-88.78-34.36V41.75A32.68,32.68,0,0,0,723.81,9Z"/><circle id="path1685-9" class="cls-2" cx="246.63" cy="616.17" r="71.76"/><path id="path1685-5-4" class="cls-2" d="M248.75,376.86A26.72,26.72,0,0,0,222,403.64v19.19a193.66,193.66,0,0,0-85.71,34.75l-15.19-15.32a26.72,26.72,0,0,0-37.88-.14l-4.4,4.36a26.73,26.73,0,0,0-.16,37.88l15.15,15.27A195.93,195.93,0,0,0,57,591.4l-24.14.86A26.72,26.72,0,0,0,7,620l.23,6.19A26.72,26.72,0,0,0,35,652l23.58-.84a195.81,195.81,0,0,0,41.93,90.12l-16.06,19A26.73,26.73,0,0,0,87.61,798l4.73,4a26.73,26.73,0,0,0,37.75-3.18l15.16-18a193.62,193.62,0,0,0,69.58,27.45v24.11a26.72,26.72,0,0,0,26.78,26.79h6.2a26.72,26.72,0,0,0,26.78-26.79V809.9a193.62,193.62,0,0,0,84.66-32.45l16.25,16.37a26.72,26.72,0,0,0,37.88.14l4.39-4.36a26.73,26.73,0,0,0,.16-37.88l-15.19-15.33a195.88,195.88,0,0,0,39.08-91.78l21.89-.79a26.73,26.73,0,0,0,25.82-27.73l-.23-6.19a26.72,26.72,0,0,0-27.73-25.81l-20.2.72A195.83,195.83,0,0,0,399,491.31l13.1-15.52A26.73,26.73,0,0,0,409,438l-4.73-4a26.73,26.73,0,0,0-37.75,3.19l-12.14,14.37a193.62,193.62,0,0,0-72.6-28.1V403.64a26.72,26.72,0,0,0-26.78-26.79Z"/><circle id="path1685-9-2" class="cls-3" cx="665.34" cy="813.92" r="48.39"/><path id="path1685-5-4-1" class="cls-3" d="M666.77,652.54a18,18,0,0,0-18.06,18.06v12.94A130.6,130.6,0,0,0,590.91,707l-10.24-10.33a18.06,18.06,0,0,0-25.55-.14l-3,2.94A18,18,0,0,0,552,725l10.21,10.3a132.12,132.12,0,0,0-24.81,61.88l-16.28.56a18,18,0,0,0-17.4,18.7l.15,4.17A18,18,0,0,0,522.6,838l15.9-.56a132,132,0,0,0,28.28,60.77L556,911a18,18,0,0,0,2.16,25.46l3.19,2.69a18,18,0,0,0,25.46-2.15L597,924.94a130.57,130.57,0,0,0,46.92,18.51v16.26A18,18,0,0,0,662,977.77h4.18a18,18,0,0,0,18.06-18.06V944.5a130.56,130.56,0,0,0,57.09-21.88l11,11a18.06,18.06,0,0,0,25.55.14l3-2.94a18,18,0,0,0,.11-25.55L770.62,895A132.09,132.09,0,0,0,797,833.09l14.76-.56a18,18,0,0,0,17.41-18.7l-.15-4.18a18,18,0,0,0-18.7-17.4l-13.62.5a132.06,132.06,0,0,0-28.56-63L777,719.24a18,18,0,0,0-2.15-25.46l-3.19-2.7a18,18,0,0,0-25.46,2.15L738,702.92A130.57,130.57,0,0,0,689,684V670.57A18,18,0,0,0,671,652.51Z"/></g></g></g></svg>