<svg xmlns="http://www.w3.org/2000/svg" viewBox="0 0 1019.14 768.54"><defs><style>.cls-1,.cls-3,.cls-4,.cls-5,.cls-6,.cls-7,.cls-8{fill:#3991c9;stroke-linecap:round;stroke-linejoin:round;}.cls-1,.cls-2,.cls-3,.cls-4,.cls-5,.cls-6,.cls-7,.cls-8{stroke:#3991c9;}.cls-1{stroke-width:12px;}.cls-2{fill:none;stroke-width:18px;}.cls-3{stroke-width:11.41px;}.cls-4{stroke-width:10.24px;}.cls-5{stroke-width:17.28px;}.cls-6{stroke-width:16.11px;}.cls-7{stroke-width:10.83px;}.cls-8{stroke-width:14.94px;}</style></defs><title>MT</title><g id="Layer_2" data-name="Layer 2"><g id="svg8"><g id="g959"><circle id="path849" class="cls-1" cx="394.27" cy="192.81" r="24.92"/><circle id="path849-4" class="cls-1" cx="317.53" cy="357.26" r="24.92"/><circle id="path849-3" class="cls-1" cx="602.57" cy="159.93" r="24.92"/><circle id="path849-2" class="cls-1" cx="773.99" cy="269.55" r="24.92"/><circle id="path849-27" class="cls-1" cx="730.14" cy="446.95" r="24.92"/><circle id="path849-7" class="cls-1" cx="482.97" cy="500.77" r="24.92"/><path id="path890" class="cls-2" d="M315.54,357.26l75.74-163.45,213.28-35.88L770,269.55,734.12,445,481,500.77Z"/><circle id="path849-27-4" class="cls-3" cx="255.74" cy="86.17" r="23.7"/><circle id="path849-27-1" class="cls-4" cx="652.4" cy="26.38" r="21.26"/><circle id="path849-27-2" class="cls-5" cx="397.26" cy="724.01" r="35.89"/><circle id="path849-27-3" class="cls-6" cx="929.46" cy="612.39" r="33.45"/><circle id="path849-27-45" class="cls-7" cx="991.25" cy="213.74" r="22.48"/><circle id="path849-27-17" class="cls-8" cx="38.48" cy="407.09" r="31.01"/><path id="path937" class="cls-2" d="M34.49,405.09l281-47.84,75.74-163.45L247.77,82.19"/><path id="path939" class="cls-2" d="M656.39,22.39,604.56,157.93,770,269.55l227.23-55.81"/><path id="path941" class="cls-2" d="M929.46,612.39,734.12,445,481,500.77,397.26,726"/></g></g></g></svg>