<svg xmlns="http://www.w3.org/2000/svg" viewBox="0 0 1030.53 438.34"><defs><style>.cls-1{fill:none;stroke:#3991c9;stroke-linecap:round;stroke-linejoin:round;stroke-width:18px;}</style></defs><title>PWK</title><g id="Layer_2" data-name="Layer 2"><g id="svg8"><g id="layer1"><g id="g883"><path id="path2248" class="cls-1" d="M9,364.31h95.41l23-41.8-.2-74.31L145.62,218h30l16.85,20.9v81.28l25.15,16.26.4,92.69,57.86.2.2-153.27,21.1-23.22v-151l11.21-25.55L308.58,9h55.74V90.28h31l-.8,155.6L420,271.42V424.3l51.09.4,46.45-22.82,60.38.2.2-123.68,34.64-32.51,39.48.2.2,88.25L742.85,336v46.85h64.83l.2-123.08,137,.2v67.15l76.64.2"/></g></g></g></g></svg>