<svg xmlns="http://www.w3.org/2000/svg" viewBox="0 0 881.23 1024.22"><defs><style>.cls-1{fill:#3991c9;stroke-linejoin:round;stroke-width:8.48px;}.cls-1,.cls-2{stroke:#3991c9;}.cls-2{fill:none;stroke-width:18px;}</style></defs><title>RH</title><g id="Layer_2" data-name="Layer 2"><g id="svg8"><path id="path4967-5" class="cls-1" d="M657.45,145.35C638,215.26,629.07,212.64,595,331.22c38.76,135,80.78,280.56,112.26,390.59l-102.65,1.62-10.19,11,124.33,137L865.84,870,754.45,722.25,877,720.32Zm61.32,726.1-77.29.68V1013.2h77.29Z"/><path id="path4967-5-0" class="cls-1" d="M360.48,187.8l65.26,143.42C387,466.17,345,611.78,313.48,721.81l102.65,1.62,10.19,11L302,871.45,171.89,870,266.3,722.25l-88.58-1.94ZM302,871.45l77.29.68V1013.2H302Z"/><path id="path4967-95" class="cls-2" d="M510.38,33.65C469,182.89,372.49,515.57,313.48,721.81L436,723.75,299.16,871.45l172.61,1.49v141.74h77.29V872.94l169.71-1.49-134-147.71,122.53-1.94C648.27,515.57,551.8,182.89,510.38,33.65Z"/><path id="path4967-5-0-2" class="cls-2" d="M204.92,186.3l81.43,204.06-111.45,330,85.67,1.62h0L171.89,870,16.33,868.47l94.41-147.71-88.58-1.94ZM143.6,870l80.12.68V1011.7H146.43Z"/><path id="path1287" class="cls-2" d="M54.54,1015.22l784.25-2"/></g></g></svg>