<svg xmlns="http://www.w3.org/2000/svg" viewBox="0 0 904.69 826.4"><defs><style>.cls-1,.cls-3{fill:#3991c9;}.cls-1,.cls-2{stroke:#3991c9;}.cls-1{stroke-width:10px;}.cls-2{fill:none;stroke-linecap:round;stroke-linejoin:round;stroke-width:28px;}</style></defs><title>SD</title><g id="Layer_2" data-name="Layer 2"><g id="svg8"><g id="svg46"><circle class="cls-1" cx="340.07" cy="19.15" r="14.15"/><circle class="cls-1" cx="494.89" cy="64.65" r="15.97"/><circle class="cls-1" cx="737.65" cy="116.52" r="15.97"/><circle class="cls-1" cx="846.96" cy="224.37" r="15.97"/><rect class="cls-1" x="565.9" y="111.85" width="171.39" height="7.66"/><rect class="cls-1" x="344.16" y="15.32" width="53.04" height="7.66"/><rect class="cls-1" x="235.04" y="259.5" width="161.7" height="7.66"/><rect class="cls-1" x="393.37" y="15.31" width="7.66" height="255.8"/><rect class="cls-1" x="491.06" y="64.65" width="7.66" height="255.8"/><circle class="cls-1" cx="237.06" cy="64.02" r="15.97"/><circle class="cls-1" cx="20.97" cy="462.16" r="15.97"/><circle class="cls-1" cx="351.38" cy="747.73" r="15.97"/><circle class="cls-1" cx="444.64" cy="805.43" r="15.97"/><circle class="cls-1" cx="46.98" cy="659.52" r="15.97"/><rect class="cls-1" x="235.03" y="64.03" width="5.86" height="195.48"/><rect class="cls-1" x="91.17" y="316.07" width="236.12" height="7.66"/><rect class="cls-1" x="46.98" y="655.69" width="215.64" height="10.18"/><rect class="cls-1" x="28.75" y="458.33" width="236.12" height="7.66"/><circle class="cls-1" cx="91.17" cy="164.14" r="15.97"/><rect class="cls-1" x="88.13" y="165.23" width="6.07" height="158.5"/><rect class="cls-1" x="346.47" y="592.4" width="9.82" height="147.17"/><rect class="cls-1" x="439.73" y="588.71" width="9.82" height="209.65"/><circle class="cls-1" cx="843.53" cy="745.23" r="15.97"/><circle class="cls-1" cx="825.94" cy="652.34" r="15.97"/><rect class="cls-1" x="533.24" y="573.83" width="9.82" height="175.21"/><rect class="cls-1" x="648.7" y="549.06" width="9.82" height="107.11"/><rect class="cls-1" x="252.8" y="568.06" width="9.82" height="87.63"/><rect class="cls-1" x="565.9" y="115.68" width="7.66" height="206"/><rect class="cls-1" x="659.61" y="220.29" width="171.39" height="7.66"/><rect class="cls-1" x="536.96" y="741.39" width="306.56" height="7.66"/><rect class="cls-1" x="648.7" y="648.51" width="175.23" height="10.55"/><circle class="cls-1" cx="782.06" cy="377.73" r="15.97"/><rect class="cls-1" x="696.36" y="373.9" width="83.69" height="10.55"/><circle class="cls-1" cx="883.72" cy="448.85" r="15.97"/><rect class="cls-1" x="707.56" y="445.02" width="174.15" height="10.55"/><rect class="cls-1" x="659.62" y="224.12" width="7.66" height="255.8"/></g><path class="cls-2" d="M660.46,278a158.34,158.34,0,0,0-76.62,19.64A169.8,169.8,0,0,0,255.12,357.4q0,4.5.23,8.93a117.24,117.24,0,1,0-37.89,229.75v.12H671.93v-.42A159.11,159.11,0,0,0,660.46,278Z"/><rect class="cls-3" x="281.09" y="433.02" width="56.52" height="129.4"/><rect class="cls-3" x="370.33" y="455.33" width="56.52" height="107.09"/><rect class="cls-3" x="457.34" y="433.02" width="56.51" height="129.4"/><rect class="cls-3" x="547.69" y="337.09" width="56.52" height="225.33"/></g></g></svg>