<svg xmlns="http://www.w3.org/2000/svg" viewBox="0 0 815 1005.21"><defs><style>.cls-1{fill:none;stroke-width:18px;}.cls-1,.cls-2,.cls-3{stroke:#3991c9;}.cls-2,.cls-3{fill:#3991c9;}.cls-2{stroke-linejoin:round;stroke-width:5.46px;}.cls-3{stroke-width:10px;}</style></defs><title>SI</title><g id="Layer_2" data-name="Layer 2"><g id="svg8"><path id="path1544" class="cls-1" d="M305.28,10.33a11.92,11.92,0,0,0-11.95,11.94V76.36A356.81,356.81,0,0,0,45.51,406.24H758.86A356.81,356.81,0,0,0,509.27,75.8V22.28a11.92,11.92,0,0,0-11.95-11.94Z"/><path id="rect1551" class="cls-2" d="M14.29,501H800.71a11.55,11.55,0,0,1,11.55,11.55h0a11.55,11.55,0,0,1-11.55,11.55H14.29A11.55,11.55,0,0,1,2.73,512.58h0A11.55,11.55,0,0,1,14.29,501Z"/><g id="g1599"><path id="path1576" class="cls-1" d="M305.28,10.33l197.84-.65V199.15"/><path id="path1576-4" class="cls-1" d="M503.12,9.68,305.28,9V198.5"/><path id="path1594" class="cls-1" d="M402.19,9.68,404,153.11"/></g><path id="path1601" class="cls-3" d="M36,604.26V681a12.41,12.41,0,0,0,12.44,12.43H106.2a308.23,308.23,0,0,0,43.7,102.46l-40,40a12.41,12.41,0,0,0,0,17.58l77,77a12.41,12.41,0,0,0,17.58,0l41.72-41.72A308.23,308.23,0,0,0,348.67,928.4v59.39a12.41,12.41,0,0,0,12.44,12.43H470a12.4,12.4,0,0,0,12.43-12.43V924.54A308.24,308.24,0,0,0,579.59,881l45.33,45.33a12.4,12.4,0,0,0,17.58,0l77-77a12.4,12.4,0,0,0,0-17.58l-48-48a308.23,308.23,0,0,0,37.33-96.18h68a12.41,12.41,0,0,0,12.44-12.43V604.26H564.52a155.53,155.53,0,1,1-309.45,0Z"/></g></g></svg>