<svg xmlns="http://www.w3.org/2000/svg" viewBox="0 0 915.44 688.85"><defs><style>.cls-1{fill:#3991c9;}</style></defs><title>SLL</title><g id="Layer_2" data-name="Layer 2"><g id="svg8"><g id="SLL_-_Sains_Lingkungan_Kelautan" data-name="SLL - Sains Lingkungan Kelautan"><path class="cls-1" d="M560.91,358s-1.26,8.86.09,10.19,5.39,2.36,7-.07,4.47-9.69,8.74-12.14,12.18-13.54,12.18-13.54l3.21-1.1s6.24,8.26,14.57,9.52a28.58,28.58,0,0,0,14.2-1.2s5.34-2.46,2.64-4-12.63-3.1-12.64-4.44a16.09,16.09,0,0,1,.24-2.68s14.22.67,25.25,4.06,21.28,10.84,21.28,10.84,13.29,17,14.7,24.76a101.37,101.37,0,0,0,2.52,11.24s-15.74,8.72-17,15.44.08,9.38.08,9.38,4.24-5.94,9.06-6.25a54.25,54.25,0,0,1,9.93.45s10.45-.37,14.49,2,9.47,8.5,9.47,8.5,4-7.55-4.17-15.79A110.34,110.34,0,0,0,680,389.39s5.14-24.71-12.53-51.37-24.15-31.69-24.15-31.69-6.81-11.46-.94-14.2,2.92-3.78,2.92-3.78S634,283.09,626,289.6s-11.48,4.93-11.48,4.93-16.12-3.34-28.66,3.75a63.52,63.52,0,0,0-27.61,30.55C553,341.45,560.91,358,560.91,358Z"/><path class="cls-1" d="M258.06,433.78c81,31,127.08,49.71,127.08,49.71s76.71,16.82,123.07,2.83c4.78-1.44,9.45-2.87,14.06-4.28C487.19,374.69,403.27,299.45,306,300.29c-81,.74-151.78,54.12-192.32,134.3C152.93,422.17,206.27,414,258.06,433.78Z"/><path class="cls-1" d="M53.08,485.16s107.25-65.4,208.62-27.33c82.52,31,129.45,49.69,129.45,49.69s78.15,16.8,125.39,2.81S603.2,482.92,636,481.24s71-.33,107.93,9.51l37,9.83s-43.73-4.69-90.06,4.21c0,0-64.52,14.57-84.42,23.94-17.71,8.34-115.73,33.26-180,24.71s-160.94-34.28-208.87-50.7S143.1,476.71,53.08,485.16Z"/><path class="cls-1" d="M0,529.67s65.9-34.51,119.14-34.14,99.79,15.61,99.79,15.61S329.19,551.28,363.36,556,459.18,585.35,526,574.9s160.59-45.45,189.28-51.73c69.14-15,127,.21,157.08,10.27s42.45,14.16,42.45,14.16-135.29,8.35-178,16.91c-35.35,7.08-168.37,61.31-272.88,52.09S307,585.89,268,573.86,193,551.65,140.74,544.5,0,529.67,0,529.67Z"/><path class="cls-1" d="M.65,600.87s65.92-34.51,119.14-34.14,99.78,15.61,99.78,15.61S329.84,622.45,364,627.25s95.82,29.3,162.62,18.85,160.55-45.49,189.28-51.73c69.14-15,127,.21,157.08,10.27l42.45,14.16s-135.29,8.35-178,16.91C702.09,642.79,569.07,697,464.57,687.8s-156.94-30.72-196-42.75-74.94-22.2-127.22-29.36S.65,600.87.65,600.87Z"/><path class="cls-1" d="M240.45,368.76s48.12-96.31,96.31-148.58a733.6,733.6,0,0,1,97.68-88.05s45.4-31.65,57.78-35.78-19.26-20.63-81.17,11S312,166.51,298.23,167.89s17.89-57.79,50.91-67.42,89.43-22,118.32-26.13S384.91,44.07,354.64,39.95s-40-22,13-27.52,87.43,6.88,114.93,38.52S475.51,1.45,494.87,0s26.24,28.89,19.36,45.4-1.37,22,11,22,67.41-11,83.92,23.39-77-6.88-77-6.88,86.67,71.5,68.79,100.41-23.39,24.79-34.4,20.66-39.89-101.81-39.89-101.81,4.12,27.47-15.14,81.15S465.65,305,425.81,295.83C411.73,292.59,451,214.66,451,214.66l55-105.93s-101.81,39.9-155.47,132.08-66,128-66,128Z"/></g></g></g></svg>