<svg xmlns="http://www.w3.org/2000/svg" viewBox="0 0 1011.55 838.73"><defs><style>.cls-1,.cls-2,.cls-3{fill:none;stroke:#3991c9;}.cls-1{stroke-width:18px;}.cls-2{stroke-linecap:round;stroke-linejoin:round;stroke-width:26.62px;}.cls-3{stroke-width:14px;}</style></defs><title>TA</title><g id="Layer_2" data-name="Layer 2"><g id="svg8"><path id="rect946-4" class="cls-1" d="M636,558.78l-74.17,1L526,612.06l-175.28.57-69.37,83.93-140.46.2L20.39,828.67l484.6.52,332.86.52-.12-.16,151.86.16-136-134-118.7.17L712,666.11Z"/><path id="rect839" class="cls-2" d="M521.53,397.14q-125.72,0-228.45,72.51c-2.51,1.77-4.53,4-3.6,7,18,56.58,39.68,101.7,62.87,136L526,612.06l29-42.3c1.95-45.16-5.7-101.81-26.5-169C527.56,397.82,524.6,397.14,521.53,397.14Z"/><path id="rect839-1" class="cls-3" d="M229.24,36.36c34.83-14.44,69.44-23.06,92.09-29.23,1.19-.32,2.33,0,2.58.74,28.28,92.55-67.75,120.67-96.34,30.58C227.31,37.67,228.1,36.83,229.24,36.36Z"/><rect id="rect859" class="cls-3" x="328.89" y="85.32" width="41.79" height="340.04" rx="5.54" ry="5.54" transform="translate(-60.86 117.79) rotate(-17.61)"/><path id="rect839-0" class="cls-2" d="M545.41,466.35c8,39.22,10.86,73.79,9.58,103.4l6.82-9.94,74.17-1,50.6,71.41a614,614,0,0,0,35.17-88.12c.93-2.92-1.1-5.19-3.6-7Q638.65,479.05,545.41,466.35Z"/><path id="rect839-1-6" class="cls-3" d="M782,101.83c-34.83-14.44-69.44-23.06-92.09-29.23-1.19-.32-2.33,0-2.58.74C659,165.89,755.06,194,783.66,103.92,783.91,103.13,783.12,102.3,782,101.83Z"/><rect id="rect859-5" class="cls-3" x="491.4" y="299.9" width="340.04" height="41.79" rx="5.54" ry="5.54" transform="translate(155.55 854.17) rotate(-72.39)"/></g></g></svg>