<svg xmlns="http://www.w3.org/2000/svg" viewBox="0 0 537.2 714.44"><defs><style>.cls-1{fill:#3991c9;stroke-width:3px;}.cls-1,.cls-2{stroke:#3991c9;}.cls-2{fill:none;stroke-width:14px;}</style></defs><title>TBS</title><g id="Layer_2" data-name="Layer 2"><g id="svg8"><path id="path322-5-5-33-4-4" class="cls-1" d="M519,121.39c43.52,155.21,5.28,301.15-153.24,284.54,0,0,60.55-116,52.53-147.7-25.52,84.39-103.46,135.58-94.71,220.08-5.65-36.12,5.43-38.94,11.55-99.44,2.82-28.94-83.91-62.87-14.45-163.64C406.56,90.62,497.53,9.15,504.48,3.37c-2.66,43.49,2,73.34,14.51,118Z"/><g id="g1281"><rect id="rect1222" class="cls-2" x="7" y="127.49" width="130.79" height="32.22" rx="16.11" ry="16.11"/><path id="path1226-5" class="cls-2" d="M17,160c.44,34.29,19.35,56.59,55,68,35.62-11.44,54.53-33.74,55-68H17Z"/><path id="path1260" class="cls-2" d="M49.79,126.06l-.51-52.53"/><path id="path1260-6" class="cls-2" d="M100,125.56,99.54,73"/></g><path id="path1283" class="cls-2" d="M340.71,378.76,336,400.52a568.9,568.9,0,0,0-12.69,124.19l.48,59.6c-.47,168.2-254.63,160.35-251.14-.86L72,228h0"/></g></g></svg>