<svg xmlns="http://www.w3.org/2000/svg" viewBox="0 0 950.79 971.29"><defs><style>.cls-1{fill:none;stroke-width:18px;}.cls-1,.cls-2{stroke:#3991c9;stroke-linecap:round;stroke-linejoin:round;}.cls-2{fill:#3991c9;stroke-width:4.69px;}</style></defs><title>TF</title><g id="Layer_2" data-name="Layer 2"><g id="svg8"><path id="path2478" class="cls-1" d="M628.81,610.84C955.8,370.79,1059.37,213,780.63,196"/><path id="path2478-8" class="cls-1" d="M671.31,461.86c-34.27-226-69.77-377-127.56-423.06C499,3.13,469.46,32.37,469.46,32.37"/><path id="path2478-8-0-3-8" class="cls-1" d="M514.49,949c29.94-11.59,63.12-45.6,99.92-104.63"/><path id="path2478-8-0-3-8-3" class="cls-1" d="M506.81,726c304.46,126.37,473.41,73.26,363.3-155.39l6.06,12.63"/><path id="path2564" class="cls-1" d="M571.8,470.13c0,30.8-27.05,55.77-60.42,55.77S451,500.93,451,470.13s27.05-55.77,60.42-55.77,60.42,25,60.42,55.77"/><path id="path857" class="cls-2" d="M2.34,508.35c0,25.53,22,46.07,49.23,46.07H96.48A367,367,0,0,0,154.68,687L103.38,731c-20.12,17.23-21.5,46.26-3.09,65.1l35.93,36.75c18.41,18.83,49.43,20.12,69.55,2.89L260,789.23A421.56,421.56,0,0,0,424.59,853.3v69.57c0,25.53,22,46.07,49.23,46.07h37.62V707.78q-5.26.21-10.52.21C367.6,708,259.52,606.84,259.52,482.07S367.6,256.14,500.91,256.14q5.26,0,10.52.22V2.34h-45c-27.27,0-49.23,20.55-49.23,46.07v57.33A420.42,420.42,0,0,0,253,173.32l-43.49-39c-19.69-17.67-50.73-17.05-69.6,1.37l-36.83,36C84.19,190,84.84,219.1,104.53,236.77L150,277.59A365.83,365.83,0,0,0,94.63,412.47H51.57C24.3,412.47,2.34,433,2.34,458.54Z"/></g></g></svg>