<svg xmlns="http://www.w3.org/2000/svg" viewBox="0 0 969.85 922.55"><defs><style>.cls-1{fill:none;stroke:#3991c9;stroke-linecap:round;stroke-linejoin:round;stroke-width:16px;}</style></defs><title>TG</title><g id="Layer_2" data-name="Layer 2"><g id="svg8"><g id="layer1"><g id="g883"><g id="g2731"><g id="g2820"><g id="g3399"><g id="g3370"><ellipse id="path3323" class="cls-1" cx="484.92" cy="509.66" rx="476.92" ry="404.9"/><path id="path3325" class="cls-1" d="M486.68,104.76l7,795.71"/><path id="path3327" class="cls-1" d="M490.2,509.66H955"/><path id="path3325-4" class="cls-1" d="M486.68,104.76c300.05,296.58,240.65,555.31,7,795.71"/><path id="path3325-4-6" class="cls-1" d="M486.68,104.76c523,189,374,709,7,795.71"/><path id="path3359" class="cls-1" d="M402.18,203.34c-423,80.27-325.79,616.6,7,619.67l-2.06-151.18-78.92-.21V615.28l158.44,1V312.49h-84.5Z"/><path id="path3361" class="cls-1" d="M179.7,191l-38.59-43.57L67.67,200.95,19.12,138.71,208.33,8H354L195.88,113.81l28.63,43.57Z"/></g><path id="path3372" class="cls-1" d="M486.68,616.31c110.09-2.94,319.93,95.07,323.92,185.57"/><path id="path3372-1" class="cls-1" d="M486.68,406.45c110.09,2.94,319.93-95.07,323.92-185.57"/></g></g></g></g></g></g></g></svg>