<svg xmlns="http://www.w3.org/2000/svg" viewBox="0 0 919.44 975.41"><defs><style>.cls-1,.cls-2{fill:none;stroke:#3991c9;stroke-linecap:round;stroke-linejoin:round;}.cls-1{stroke-width:18px;}.cls-2{stroke-width:12px;}</style></defs><title>TI</title><g id="Layer_2" data-name="Layer 2"><g id="svg8"><path id="rect3707" class="cls-1" d="M58.86,680.26C31.43,683.9,9,702.56,9,730.22V916.45a49.78,49.78,0,0,0,49.86,50H860.48a49.87,49.87,0,0,0,50-50V730.22a49.87,49.87,0,0,0-50-50C551.78,629.33,374.84,629,58.86,680.26Z"/><path id="rect3712" class="cls-2" d="M453.28,215.16c-26.26,0-46.29,21.16-47.4,47.4l-16.15,381c49.8-2,98.52-1.95,148.07.17L519.71,262.56c-1.24-26.23-21.14-47.4-47.4-47.4Z"/><path id="rect3712-8" class="cls-2" d="M731.53,275.87c-26.26,0-46.29,21.16-47.4,47.4l-14,330.57c45.55,4.88,93.25,11.23,144.46,19.14L798,323.27c-1.24-26.23-21.14-47.4-47.4-47.4Z"/><path id="rect3712-8-3" class="cls-2" d="M182.63,280.93c-26.26,0-46.31,21.16-47.43,47.4L120.67,670.66c51-7.57,98.45-13.57,143.76-18.14L249,328.33c-1.24-26.23-21.14-47.4-47.4-47.4Z"/><path id="rect3793" class="cls-2" d="M467.84,769.12a77,77,0,0,0-77.14,77.16v75.88a76.8,76.8,0,0,0,14,44.24H531a76.8,76.8,0,0,0,14-44.24V846.28A77,77,0,0,0,467.84,769.12Z"/><path id="path3812" class="cls-1" d="M122.57,754l136.6,2.53"/><path id="path3812-6" class="cls-1" d="M122.57,839.81l136.6,2.53"/><path id="path3812-2" class="cls-1" d="M666.32,754l136.6,2.53"/><path id="path3812-6-1" class="cls-1" d="M666.32,839.81l136.6,2.53"/><path id="path3847" class="cls-1" d="M297.11,71c16,147.47-118.37,36.13-139.13,149.24"/><path id="path3847-1" class="cls-1" d="M568.37,9c16,147.47-118.37,36.13-139.13,149.24"/><path id="path3847-11" class="cls-1" d="M846.62,74.77C862.67,222.23,728.25,110.9,707.5,224"/></g></g></svg>