<svg xmlns="http://www.w3.org/2000/svg" viewBox="0 0 518.94 886.68"><defs><style>.cls-1,.cls-2,.cls-3,.cls-4,.cls-5{fill:#3991c9;stroke:#3991c9;}.cls-1,.cls-2,.cls-3,.cls-5{stroke-linecap:round;stroke-linejoin:round;}.cls-1{stroke-width:0.33px;}.cls-2{stroke-width:0.7px;}.cls-3{stroke-width:0.47px;}.cls-4{stroke-width:0.2px;}.cls-5{stroke-width:0.56px;}</style></defs><title>TIP</title><g id="Layer_2" data-name="Layer 2"><g id="svg8"><g id="layer1"><g id="g883"><g id="g2731"><g id="g2820"><g id="g4144"><path id="path1685-5-4-1" class="cls-1" d="M377.22,751.07h-1.74A7.5,7.5,0,0,0,368,758.6V764a54.38,54.38,0,0,0-24.06,9.75l-4.27-4.3a7.52,7.52,0,0,0-10.64-.06l-1.23,1.23a7.51,7.51,0,0,0,0,10.64l4.25,4.29a55,55,0,0,0-10.33,25.76l-6.78.24a7.51,7.51,0,0,0-7.25,7.78l.09,1.74a7.49,7.49,0,0,0,7.78,7.25l6.63-.23a55,55,0,0,0,11.77,25.3l-4.51,5.34a7.51,7.51,0,0,0,.9,10.6l1.32,1.12a7.51,7.51,0,0,0,10.6-.89l4.26-5A54.37,54.37,0,0,0,366,872.23V879a7.5,7.5,0,0,0,7.52,7.52h1.74a7.5,7.5,0,0,0,7.52-7.52v-6.33a54.37,54.37,0,0,0,23.77-9.11l4.56,4.6a7.52,7.52,0,0,0,10.64.06L423,867a7.51,7.51,0,0,0,0-10.64L418.76,852a55,55,0,0,0,11-25.77l6.15-.24a7.51,7.51,0,0,0,7.25-7.79l-.09-1.73a7.49,7.49,0,0,0-7.79-7.25l-5.67.21a55,55,0,0,0-11.89-26.26l3.68-4.35a7.5,7.5,0,0,0-.9-10.6l-1.32-1.13a7.51,7.51,0,0,0-10.6.89l-3.41,4a54.37,54.37,0,0,0-20.39-7.89v-5.58a7.5,7.5,0,0,0-7.52-7.52Zm-2.62,47.06h.3a20,20,0,1,1-.29,0Z"/><path id="rect3941" class="cls-2" d="M108.63.35V383.28H85.83V178.13a17.1,17.1,0,0,0-34.19,0V383.28H34.54V300.65a17.1,17.1,0,0,0-34.19,0V511.51A17,17,0,0,0,6,524.19v2.67a17,17,0,0,0,2.47,8.77C42,470.73,129.85,432.07,211.21,379.7v-192c0-14.8-7.63-26.71-17.1-26.71S177,172.94,177,187.74V383.28H142.82V.35Zm171,92.29V328.83a334.93,334.93,0,0,0,34.19-34.57V92.64Z"/><path id="path1685-5-4" class="cls-3" d="M268.6,690.05c-16.73,8-32.88,16.09-47.33,24.42a29.85,29.85,0,0,1-20.76,51.33h0A29.88,29.88,0,0,1,174.15,750c-15.46,17-24,37-22.24,62.11,0,0,0,0,.09,0l6.3-7.48a80.63,80.63,0,0,0,29,11.42v10a11.13,11.13,0,0,0,11.15,11.15H201A11.13,11.13,0,0,0,212.17,826v-9.39a80.63,80.63,0,0,0,35.26-13.51l6.77,6.83A11.13,11.13,0,0,0,270,810l1.83-1.83a11.17,11.17,0,0,0,.09-15.78L265.57,786a81.57,81.57,0,0,0,16.27-38.22l9.13-.34a11.14,11.14,0,0,0,10.75-11.55l-.09-2.56a11.14,11.14,0,0,0-11.55-10.75l-8.41.31a81.6,81.6,0,0,0-13-32.83Z"/><path id="path4013" class="cls-4" d="M397,167.27c-25.16,359-659,231.34-232.65,715.34C-42.88,571.72,692.72,775.89,397,167.27Zm2.17,147.85c12.63,271-251.47,230.37-298.1,375.47-1.39,5.19-2.8,10.31-4.13,15.9a136.84,136.84,0,0,1,4.13-15.9C166.24,453.89,343.79,598.71,399.12,315.12Z"/><path id="path1685-5" class="cls-5" d="M479.05,516c-11.19,30.5-28.6,55.41-49.75,76.38A36.49,36.49,0,0,1,395,641.5h0A36.54,36.54,0,0,1,374.25,635c-18.09,11.36-37,21.52-55.87,30.9q1.06,1.38,2.16,2.72l-8.17,9.68A13.63,13.63,0,0,0,314,697.58l2.4,2A13.62,13.62,0,0,0,335.62,698l7.72-9.15a98.6,98.6,0,0,0,35.42,14V715.1a13.6,13.6,0,0,0,13.65,13.62h3.16a13.6,13.6,0,0,0,13.65-13.62V703.61a98.6,98.6,0,0,0,43.1-16.52l8.28,8.33a13.59,13.59,0,0,0,19.28.09l2.25-2.23a13.62,13.62,0,0,0,.09-19.3l-7.75-7.79a99.75,99.75,0,0,0,19.9-46.75l11.15-.4a13.59,13.59,0,0,0,13.13-14.11l-.09-3.16a13.61,13.61,0,0,0-14.14-13.13l-10.28.36a99.72,99.72,0,0,0-21.57-47.59l6.68-7.92A13.42,13.42,0,0,0,479,516Z"/></g></g></g></g></g></g></g></svg>