<svg xmlns="http://www.w3.org/2000/svg" viewBox="0 0 847.7 985.42"><defs><style>.cls-1{fill:none;stroke:#3991c9;stroke-linecap:round;stroke-linejoin:round;stroke-width:16px;}</style></defs><title>TK</title><g id="Layer_2" data-name="Layer 2"><g id="svg8"><rect id="rect24" class="cls-1" x="8" y="662.05" width="415.42" height="313.75" rx="48.69" ry="48.69"/><path id="path26" class="cls-1" d="M77.79,362.92l-29.86,300,186.38-2.05L205.47,362.92Z"/><path id="path871" class="cls-1" d="M205.47,362.92c66.87-5.32,94.87-39.79,121-75.67,73.65,12.42,130.31-1.6,172.79-37.68C564,260.72,605.51,303.85,738.3,221c56.58-8.76,103.42-25.43,101.34-81.85"/><path id="path873" class="cls-1" d="M77.79,362.92c-9.27-59.82.77-117.12,70.68-166.61C185.57,120.9,248.67,86.37,334.26,87.17,390.07,33,459,14,546,43c71.8-24.51,143.13-59.15,218.26-10.39"/><path id="rect875" class="cls-1" d="M188,750.17v71.48c-32.66,58-47.92,136.36-45.89,140.23,3.21,6.1,167.77,6.33,171.06.28,2.07-3.81-19.68-85.08-51.48-143.55V750.17c50.37-19.61-123.45-20.76-73.7,0Z"/><path id="path26-0" class="cls-1" d="M255.62,446.84l-21.31,214,133-1.47L346.7,446.84Z"/><path id="path871-1" class="cls-1" d="M346.7,446.84c47.71-3.79,67.68-28.39,86.31-54,52.54,8.86,93-1.14,123.27-26.88,46.17,8,75.81,38.72,170.54-20.39,40.36-6.25,73.78-18.14,72.29-58.39"/><path id="path873-8" class="cls-1" d="M255.62,446.84c-6.61-42.68,21-124.28,70.85-159.59"/><rect id="rect24-2" class="cls-1" x="423.42" y="748.45" width="301.02" height="227.35" rx="35.28" ry="35.28"/><path id="rect875-2" class="cls-1" d="M552.82,849.63v42.21c-19.28,34.27-28.29,80.52-27.09,82.8,1.89,3.6,99.07,3.74,101,.16,1.22-2.25-11.62-50.24-30.4-84.76V849.63c29.74-11.58-72.89-12.26-43.52,0Z"/></g></g></svg>