<svg xmlns="http://www.w3.org/2000/svg" viewBox="0 0 749.81 1009.34"><defs><style>.cls-1{fill:none;}.cls-1,.cls-2{stroke:#3991c9;stroke-linecap:round;stroke-linejoin:round;stroke-width:12px;}.cls-2{fill:#3991c9;}</style></defs><title>TL</title><g id="Layer_2" data-name="Layer 2"><g id="svg8"><g id="layer1"><g id="g883"><g id="g842"><path id="path2610" class="cls-1" d="M440.3,665.51c42.4,31.61,79.34,37.77,103.42-16.09,77.34,8.21,148.09,5.75,147.08-112.61,49.42-38.94,81.73-83.29,16.09-158.57,32-46.56,63.76-93.15-29.88-151.68,2.76-67,2.68-132.23-96.52-133.29C545.93,54.59,516.2,6.92,440.3,45,399.5,11.8,358.41-17.38,311.6,33.53c-87.72-19.14-97,24.19-121.8,55.16C61.94,91.15,64.1,152.72,68,215.08,0,257.08-.33,318.24,35.83,389.74c-38.72,56.48-48,109.69,23,154,4.27,74.64,12.69,145.12,131,105.71,42.13,74,84.27,43.44,126.4,16.09,44.79,41.1,85.42,32.21,124.1,0Z"/><path id="path2612" class="cls-2" d="M357.56,1001l101.12,2.3L419.61,550.6c67.94-30.48,93.36-91.34,119.5-151.68-40.5,42.62-74.78,116.35-126.4,103.42-73.2-84.4-52.57-206.33-71.24-312.55-7,126.85-18.76,270.8,27.58,360.81-65.54-53.85-112.26-38.52-172.36-59.75,60.62,38.07,139.19,61.77,172.36,121.8Z"/></g></g></g></g></g></svg>