<svg xmlns="http://www.w3.org/2000/svg" viewBox="0 0 923.81 899.13"><defs><style>.cls-1,.cls-2{fill:#3991c9;}.cls-1,.cls-2,.cls-3{stroke:#3991c9;stroke-linecap:round;stroke-linejoin:round;}.cls-1{stroke-width:0.5px;}.cls-2{stroke-width:1.6px;}.cls-3{fill:none;stroke-width:16px;}</style></defs><title>TP</title><g id="Layer_2" data-name="Layer 2"><g id="svg8"><g id="g4387"><path id="rect4312" class="cls-1" d="M415.75,307.87c45.94,53.81,52.2,88,35.2,136.22-1,4.84-2.61,8.57-3.58,8.37-48.13-31-52.5-90.64-35.2-136.22,1-4.84,2.61-8.57,3.58-8.37Z"/><path id="rect4312-4" class="cls-1" d="M604.84,437.93C538.16,414.28,504,420.66,465,453.78c-4.16,2.68-7.07,5.5-6.54,6.34,46.15,33.86,103.42,16.61,139.8-15.84C602.46,441.6,605.38,438.77,604.84,437.93Z"/><path id="rect4312-5" class="cls-1" d="M366,380.2c45.94,53.81,52.2,88,35.2,136.22-1,4.84-2.61,8.57-3.58,8.37-48.13-31-52.5-90.64-35.2-136.22,1-4.84,2.61-8.57,3.58-8.37Z"/><path id="rect4312-4-2" class="cls-1" d="M555.09,510.26c-66.68-23.65-100.84-17.28-139.8,15.84-4.16,2.68-7.07,5.5-6.54,6.34,46.15,33.86,103.42,16.61,139.8-15.84,4.16-2.68,7.07-5.5,6.54-6.34Z"/><path id="rect4312-5-5" class="cls-1" d="M320.08,447c45.94,53.81,52.2,88,35.2,136.22-1,4.84-2.61,8.57-3.58,8.37-48.13-31-52.5-90.64-35.2-136.22,1-4.84,2.61-8.57,3.58-8.37Z"/><path id="rect4312-4-2-2" class="cls-1" d="M509.17,577c-66.68-23.65-100.84-17.28-139.8,15.84-4.16,2.68-7.07,5.5-6.54,6.34,46.15,33.86,103.42,16.61,139.8-15.84,4.16-2.68,7.07-5.5,6.54-6.34Z"/></g><path id="path1685-5-9" class="cls-2" d="M320.74.81a44.93,44.93,0,0,0-8.93,1.13l-10,2.29a44.17,44.17,0,0,0-33.26,53l7.11,30.94a320.1,320.1,0,0,0-125.23,87.67l-30.13-19A44.18,44.18,0,0,0,59.23,170.6l-5.47,8.65A44.18,44.18,0,0,0,67.5,240.34l30.05,19A323.86,323.86,0,0,0,72.22,420.76L33.64,431.1A44.16,44.16,0,0,0,2.33,485.31L5,495.19a44.15,44.15,0,0,0,54.18,31.34l37.69-10.06A323.65,323.65,0,0,0,197.73,646.14L178.89,682.7a44.31,44.31,0,0,0-4.82,17.09l71.18-97.12a255.08,255.08,0,0,1-106.93-155C106.88,310.69,192.11,174.1,328.94,142.16l.93-.2a255.08,255.08,0,0,1,216.66,49.62c30.58-34.79,88.17-119.13,36-148l-9.1-4.72A44.18,44.18,0,0,0,513.82,58L499.58,85.63A320,320,0,0,0,372.23,67.22l-7.34-32A44.17,44.17,0,0,0,320.74.81Z"/><path id="path5007" class="cls-3" d="M216,806,325.73,654.36"/><path id="path5007-5" class="cls-3" d="M613,236.43,703.33,91.2"/><path id="path5007-8" class="cls-3" d="M216,806c511.35,333,988.67-397.28,487.32-714.84"/></g></g></svg>