<svg xmlns="http://www.w3.org/2000/svg" viewBox="0 0 965.55 575.26"><defs><style>.cls-1,.cls-2{fill:#3991c9;}.cls-1,.cls-2,.cls-3,.cls-4,.cls-5{stroke:#3991c9;stroke-linecap:round;}.cls-1,.cls-2,.cls-3,.cls-5{stroke-linejoin:round;}.cls-1{stroke-width:11.6px;}.cls-2{stroke-width:12.48px;}.cls-3,.cls-4,.cls-5{fill:none;}.cls-3{stroke-width:26px;}.cls-4{stroke-width:17px;}.cls-5{stroke-width:13px;}</style></defs><title>TT</title><g id="Layer_2" data-name="Layer 2"><g id="svg8"><path id="rect833" class="cls-1" d="M30.53,7.69,302.36,119.77c13.66,5.63,24.73,22.18,24.73,37V268.25c0,14.78-11.07,22.19-24.73,16.55L30.53,172.72c-13.66-5.63-24.73-22.18-24.73-37V24.24C5.8,9.46,16.87,2.05,30.53,7.69Z"/><path id="rect833-4" class="cls-2" d="M640.21,268.81,932.7,389.41c14.7,6.06,26.61,23.86,26.61,39.76v120c0,15.9-11.91,23.87-26.61,17.81L640.21,446.39c-14.7-6.06-26.61-23.86-26.61-39.76v-120C613.6,270.73,625.52,262.75,640.21,268.81Z"/><path id="path970" class="cls-3" d="M390.31,302c44.86,20.26,81.23,73,81.23,117.91s-36.37,64.81-81.23,44.55-81.23-73-81.23-117.91S345.44,281.76,390.31,302Z"/><path id="path970-1" class="cls-3" d="M549.65,146.77c-10.51,0-19.89,2.67-27.52,7.86l-196,139.83,3.78,4.78c15.43-11.5,38.27-11.87,62.34-1,44.86,20.26,81.23,73,81.23,117.91h0c0,18.27-6.16,33.23-17.48,42.45l6.15,7.77L664.23,272.58c0-44.86-36.37-97.65-81.23-117.91C571.5,149.47,560.13,146.78,549.65,146.77Z"/><path id="path1008" class="cls-3" d="M562,17.56c-50.56.08-82.95,35.79-82.95,91.46,0,17.95,3.39,37.29,10,57L516,146.85c7.63-5.19,17-7.87,27.52-7.86s21.85,2.71,33.35,7.9c44.86,20.26,81.23,73,81.23,117.91l-48.32,46.33q6,3.24,12,6c78.77,36.16,142.63,1.62,142.63-77.15S700.5,68,621.72,31.87C601.12,22.41,580.76,17.53,562,17.56Z"/><path id="path1027" class="cls-4" d="M329.86,192.64,413,224.56"/><path id="path1027-9" class="cls-4" d="M567.88,295.5,651,327.42"/><path id="path970-6" class="cls-5" d="M390.82,347.32c20.2,9.12,36.57,32.89,36.57,53.09S411,429.59,390.82,420.46s-36.57-32.89-36.57-53.09S370.63,338.2,390.82,347.32Z"/></g></g></svg>