<svg width="41" height="40" viewBox="0 0 41 40" fill="none" xmlns="http://www.w3.org/2000/svg">
<path d="M16.834 17.4797H23.1336" stroke="#A8A8A8" stroke-width="1.5" stroke-linecap="round" stroke-linejoin="round"/>
<path fill-rule="evenodd" clip-rule="evenodd" d="M9.59961 14.8556C9.59961 8.75534 10.2648 9.18109 13.8452 5.86067C15.4117 4.59967 17.8492 2.1665 19.9541 2.1665C22.0579 2.1665 24.5442 4.58775 26.1248 5.86067C29.7052 9.18109 30.3693 8.75534 30.3693 14.8556C30.3693 23.8332 28.247 23.8332 19.9844 23.8332C11.7219 23.8332 9.59961 23.8332 9.59961 14.8556Z" stroke="#A8A8A8" stroke-width="1.5" stroke-linecap="round" stroke-linejoin="round"/>
<path d="M1.0127 29.8613H3.13184C4.11491 29.8613 4.82454 30.0046 5.26074 30.291C5.7002 30.5775 5.91992 31.0299 5.91992 31.6484C5.91992 32.0651 5.8125 32.4118 5.59766 32.6885C5.38281 32.9652 5.07357 33.1393 4.66992 33.2109V33.2598C5.17122 33.3542 5.53906 33.5413 5.77344 33.8213C6.01107 34.098 6.12988 34.474 6.12988 34.9492C6.12988 35.5905 5.90527 36.0934 5.45605 36.458C5.01009 36.8193 4.38835 37 3.59082 37H1.0127V29.8613ZM2.17969 32.8105H3.30273C3.79102 32.8105 4.14746 32.734 4.37207 32.5811C4.59668 32.4248 4.70898 32.1611 4.70898 31.79C4.70898 31.4548 4.58691 31.2122 4.34277 31.0625C4.10189 30.9128 3.71777 30.8379 3.19043 30.8379H2.17969V32.8105ZM2.17969 33.7578V36.0186H3.41992C3.9082 36.0186 4.27604 35.9258 4.52344 35.7402C4.77409 35.5514 4.89941 35.2552 4.89941 34.8516C4.89941 34.4805 4.77246 34.2054 4.51855 34.0264C4.26465 33.8473 3.87891 33.7578 3.36133 33.7578H2.17969ZM9.85059 37.0977C9.01074 37.0977 8.35319 36.8535 7.87793 36.3652C7.40592 35.8737 7.16992 35.1982 7.16992 34.3389C7.16992 33.4567 7.38965 32.7633 7.8291 32.2588C8.26855 31.7542 8.8724 31.502 9.64062 31.502C10.3535 31.502 10.9167 31.7184 11.3301 32.1514C11.7435 32.5843 11.9502 33.18 11.9502 33.9385V34.5586H8.35156C8.36784 35.0827 8.50944 35.4863 8.77637 35.7695C9.04329 36.0495 9.41927 36.1895 9.9043 36.1895C10.2233 36.1895 10.5195 36.1602 10.793 36.1016C11.0697 36.0397 11.3659 35.9388 11.6816 35.7988V36.7314C11.4017 36.8649 11.1185 36.9593 10.832 37.0146C10.5456 37.07 10.2184 37.0977 9.85059 37.0977ZM9.64062 32.3711C9.27604 32.3711 8.98307 32.4867 8.76172 32.7178C8.54362 32.9489 8.41341 33.2858 8.37109 33.7285H10.8223C10.8158 33.2826 10.7083 32.9456 10.5 32.7178C10.2917 32.4867 10.0052 32.3711 9.64062 32.3711ZM15.9932 31.502C16.2243 31.502 16.4147 31.5182 16.5645 31.5508L16.4521 32.6201C16.2894 32.5811 16.1201 32.5615 15.9443 32.5615C15.4854 32.5615 15.1126 32.7113 14.8262 33.0107C14.543 33.3102 14.4014 33.6992 14.4014 34.1777V37H13.2539V31.5996H14.1523L14.3037 32.5518H14.3623C14.5413 32.2295 14.7741 31.974 15.0605 31.7852C15.3503 31.5964 15.6611 31.502 15.9932 31.502ZM20.9492 37L20.7197 36.248H20.6807C20.4202 36.5768 20.1582 36.8014 19.8945 36.9219C19.6309 37.0391 19.2923 37.0977 18.8789 37.0977C18.3483 37.0977 17.9333 36.9544 17.6338 36.668C17.3376 36.3815 17.1895 35.9762 17.1895 35.4521C17.1895 34.8955 17.3962 34.4756 17.8096 34.1924C18.223 33.9092 18.8529 33.7546 19.6992 33.7285L20.6318 33.6992V33.4111C20.6318 33.0661 20.5505 32.8089 20.3877 32.6396C20.2282 32.4671 19.9792 32.3809 19.6406 32.3809C19.3639 32.3809 19.0986 32.4215 18.8447 32.5029C18.5908 32.5843 18.3467 32.6803 18.1123 32.791L17.7412 31.9707C18.0342 31.8177 18.3548 31.7021 18.7031 31.624C19.0514 31.5426 19.3802 31.502 19.6895 31.502C20.3763 31.502 20.8939 31.6517 21.2422 31.9512C21.5938 32.2507 21.7695 32.721 21.7695 33.3623V37H20.9492ZM19.2402 36.2188C19.6569 36.2188 19.9906 36.1032 20.2412 35.8721C20.4951 35.6377 20.6221 35.3105 20.6221 34.8906V34.4219L19.9287 34.4512C19.3883 34.4707 18.9945 34.5618 18.7471 34.7246C18.5029 34.8841 18.3809 35.1299 18.3809 35.4619C18.3809 35.7028 18.4525 35.89 18.5957 36.0234C18.7389 36.1536 18.9538 36.2188 19.2402 36.2188ZM28.1221 37H26.9697V33.6797C26.9697 33.263 26.8851 32.9521 26.7158 32.7471C26.5498 32.542 26.2845 32.4395 25.9199 32.4395C25.4349 32.4395 25.0801 32.5827 24.8555 32.8691C24.6309 33.1556 24.5186 33.6357 24.5186 34.3096V37H23.3711V31.5996H24.2695L24.4307 32.3076H24.4893C24.652 32.0505 24.8831 31.8519 25.1826 31.7119C25.4821 31.5719 25.8141 31.502 26.1787 31.502C27.4743 31.502 28.1221 32.1611 28.1221 33.4795V37ZM31.54 37.0977C30.8662 37.0977 30.3405 36.8535 29.9629 36.3652C29.5853 35.877 29.3965 35.1917 29.3965 34.3096C29.3965 33.4242 29.5869 32.7357 29.9678 32.2441C30.3519 31.7493 30.8825 31.502 31.5596 31.502C32.2692 31.502 32.8096 31.764 33.1807 32.2881H33.2393C33.1839 31.9007 33.1562 31.5947 33.1562 31.3701V29.4023H34.3086V37H33.4102L33.21 36.292H33.1562C32.7884 36.8291 32.2497 37.0977 31.54 37.0977ZM31.8477 36.1699C32.3197 36.1699 32.6631 36.0381 32.8779 35.7744C33.0928 35.5075 33.2035 35.0762 33.21 34.4805V34.3193C33.21 33.639 33.0993 33.1556 32.8779 32.8691C32.6566 32.5827 32.3099 32.4395 31.8379 32.4395C31.4342 32.4395 31.1234 32.6038 30.9053 32.9326C30.6872 33.2581 30.5781 33.7236 30.5781 34.3291C30.5781 34.9281 30.6839 35.3854 30.8955 35.7012C31.1071 36.0137 31.4245 36.1699 31.8477 36.1699ZM39.3281 37L39.0986 36.248H39.0596C38.7992 36.5768 38.5371 36.8014 38.2734 36.9219C38.0098 37.0391 37.6712 37.0977 37.2578 37.0977C36.7272 37.0977 36.3122 36.9544 36.0127 36.668C35.7165 36.3815 35.5684 35.9762 35.5684 35.4521C35.5684 34.8955 35.7751 34.4756 36.1885 34.1924C36.6019 33.9092 37.2318 33.7546 38.0781 33.7285L39.0107 33.6992V33.4111C39.0107 33.0661 38.9294 32.8089 38.7666 32.6396C38.6071 32.4671 38.3581 32.3809 38.0195 32.3809C37.7428 32.3809 37.4775 32.4215 37.2236 32.5029C36.9697 32.5843 36.7256 32.6803 36.4912 32.791L36.1201 31.9707C36.4131 31.8177 36.7337 31.7021 37.082 31.624C37.4303 31.5426 37.7591 31.502 38.0684 31.502C38.7552 31.502 39.2728 31.6517 39.6211 31.9512C39.9727 32.2507 40.1484 32.721 40.1484 33.3623V37H39.3281ZM37.6191 36.2188C38.0358 36.2188 38.3695 36.1032 38.6201 35.8721C38.874 35.6377 39.001 35.3105 39.001 34.8906V34.4219L38.3076 34.4512C37.7673 34.4707 37.3734 34.5618 37.126 34.7246C36.8818 34.8841 36.7598 35.1299 36.7598 35.4619C36.7598 35.7028 36.8314 35.89 36.9746 36.0234C37.1178 36.1536 37.3327 36.2188 37.6191 36.2188Z" fill="#A8A8A8"/>
<path d="M1.0127 29.8613V29.7613H0.912695V29.8613H1.0127ZM5.26074 30.291L5.20585 30.3746L5.20613 30.3748L5.26074 30.291ZM4.66992 33.2109L4.65245 33.1125L4.56992 33.1271V33.2109H4.66992ZM4.66992 33.2598H4.56992V33.3427L4.65142 33.358L4.66992 33.2598ZM5.77344 33.8213L5.69676 33.8855L5.69758 33.8864L5.77344 33.8213ZM5.45605 36.458L5.51901 36.5357L5.51907 36.5357L5.45605 36.458ZM1.0127 37H0.912695V37.1H1.0127V37ZM2.17969 32.8105H2.07969V32.9105H2.17969V32.8105ZM4.37207 32.5811L4.42837 32.6637L4.42918 32.6631L4.37207 32.5811ZM4.34277 31.0625L4.28998 31.1474L4.29049 31.1477L4.34277 31.0625ZM2.17969 30.8379V30.7379H2.07969V30.8379H2.17969ZM2.17969 33.7578V33.6578H2.07969V33.7578H2.17969ZM2.17969 36.0186H2.07969V36.1186H2.17969V36.0186ZM4.52344 35.7402L4.58344 35.8202L4.5836 35.8201L4.52344 35.7402ZM1.0127 29.9613H3.13184V29.7613H1.0127V29.9613ZM3.13184 29.9613C4.11004 29.9613 4.79495 30.1048 5.20585 30.3746L5.31564 30.2074C4.85414 29.9044 4.11977 29.7613 3.13184 29.7613V29.9613ZM5.20613 30.3748C5.61185 30.6393 5.81992 31.0567 5.81992 31.6484H6.01992C6.01992 31.0032 5.78854 30.5157 5.31535 30.2072L5.20613 30.3748ZM5.81992 31.6484C5.81992 32.0473 5.71744 32.3712 5.51867 32.6271L5.67664 32.7498C5.90756 32.4524 6.01992 32.083 6.01992 31.6484H5.81992ZM5.51867 32.6271C5.32157 32.881 5.03611 33.0444 4.65245 33.1125L4.68739 33.3094C5.11102 33.2342 5.44406 33.0493 5.67664 32.7498L5.51867 32.6271ZM4.56992 33.2109V33.2598H4.76992V33.2109H4.56992ZM4.65142 33.358C5.13889 33.4498 5.48219 33.6292 5.69676 33.8855L5.85011 33.7571C5.59594 33.4535 5.20356 33.2585 4.68843 33.1615L4.65142 33.358ZM5.69758 33.8864C5.91542 34.1401 6.02988 34.4905 6.02988 34.9492H6.22988C6.22988 34.4574 6.10672 34.0559 5.8493 33.7561L5.69758 33.8864ZM6.02988 34.9492C6.02988 35.5641 5.81612 36.037 5.39304 36.3804L5.51907 36.5357C5.99442 36.1499 6.22988 35.6169 6.22988 34.9492H6.02988ZM5.3931 36.3803C4.97077 36.7225 4.37425 36.9 3.59082 36.9V37.1C4.40245 37.1 5.04942 36.9162 5.51901 36.5357L5.3931 36.3803ZM3.59082 36.9H1.0127V37.1H3.59082V36.9ZM1.1127 37V29.8613H0.912695V37H1.1127ZM2.17969 32.9105H3.30273V32.7105H2.17969V32.9105ZM3.30273 32.9105C3.79716 32.9105 4.17851 32.8339 4.42837 32.6637L4.31577 32.4984C4.11641 32.6342 3.78487 32.7105 3.30273 32.7105V32.9105ZM4.42918 32.6631C4.68965 32.4819 4.80898 32.1811 4.80898 31.79H4.60898C4.60898 32.1411 4.50371 32.3677 4.31496 32.499L4.42918 32.6631ZM4.80898 31.79C4.80898 31.427 4.67435 31.1486 4.39506 30.9773L4.29049 31.1477C4.49948 31.2759 4.60898 31.4825 4.60898 31.79H4.80898ZM4.39557 30.9776C4.13028 30.8127 3.7228 30.7379 3.19043 30.7379V30.9379C3.71274 30.9379 4.0735 31.0129 4.28998 31.1474L4.39557 30.9776ZM3.19043 30.7379H2.17969V30.9379H3.19043V30.7379ZM2.07969 30.8379V32.8105H2.27969V30.8379H2.07969ZM2.07969 33.7578V36.0186H2.27969V33.7578H2.07969ZM2.17969 36.1186H3.41992V35.9186H2.17969V36.1186ZM3.41992 36.1186C3.91818 36.1186 4.31128 36.0244 4.58344 35.8202L4.46344 35.6602C4.2408 35.8272 3.89823 35.9186 3.41992 35.9186V36.1186ZM4.5836 35.8201C4.86629 35.6072 4.99941 35.2767 4.99941 34.8516H4.79941C4.79941 35.2337 4.68189 35.4957 4.46327 35.6604L4.5836 35.8201ZM4.99941 34.8516C4.99941 34.4552 4.86204 34.1462 4.57618 33.9446L4.46093 34.1081C4.68288 34.2646 4.79941 34.5058 4.79941 34.8516H4.99941ZM4.57618 33.9446C4.29751 33.7481 3.88712 33.6578 3.36133 33.6578V33.8578C3.87069 33.8578 4.23179 33.9465 4.46093 34.1081L4.57618 33.9446ZM3.36133 33.6578H2.17969V33.8578H3.36133V33.6578ZM7.87793 36.3652L7.8058 36.4345L7.80627 36.435L7.87793 36.3652ZM7.8291 32.2588L7.75369 32.1931L7.8291 32.2588ZM11.3301 32.1514L11.2578 32.2204L11.3301 32.1514ZM11.9502 34.5586V34.6586H12.0502V34.5586H11.9502ZM8.35156 34.5586V34.4586H8.24841L8.25161 34.5617L8.35156 34.5586ZM8.77637 35.7695L8.7036 35.8381L8.70399 35.8385L8.77637 35.7695ZM10.793 36.1016L10.8139 36.1993L10.8148 36.1992L10.793 36.1016ZM11.6816 35.7988H11.7816V35.6451L11.6411 35.7074L11.6816 35.7988ZM11.6816 36.7314L11.7247 36.8217L11.7816 36.7946V36.7314H11.6816ZM8.76172 32.7178L8.6895 32.6486L8.68899 32.6491L8.76172 32.7178ZM8.37109 33.7285L8.27155 33.719L8.26108 33.8285H8.37109V33.7285ZM10.8223 33.7285V33.8285H10.9237L10.9223 33.7271L10.8223 33.7285ZM10.5 32.7178L10.4257 32.7847L10.4262 32.7853L10.5 32.7178ZM9.85059 36.9977C9.03104 36.9977 8.40182 36.7601 7.94959 36.2955L7.80627 36.435C8.30456 36.9469 8.99044 37.1977 9.85059 37.1977V36.9977ZM7.95006 36.296C7.50029 35.8276 7.26992 35.1795 7.26992 34.3389H7.06992C7.06992 35.217 7.31156 35.9198 7.8058 36.4345L7.95006 36.296ZM7.26992 34.3389C7.26992 33.473 7.48539 32.8057 7.90451 32.3245L7.75369 32.1931C7.29391 32.721 7.06992 33.4404 7.06992 34.3389H7.26992ZM7.90451 32.3245C8.32206 31.8451 8.89656 31.602 9.64062 31.602V31.402C8.84823 31.402 8.21505 31.6634 7.75369 32.1931L7.90451 32.3245ZM9.64062 31.602C10.3318 31.602 10.8668 31.811 11.2578 32.2204L11.4024 32.0823C10.9666 31.6259 10.3752 31.402 9.64062 31.402V31.602ZM11.2578 32.2204C11.649 32.6302 11.8502 33.1986 11.8502 33.9385H12.0502C12.0502 33.1615 11.838 32.5385 11.4024 32.0823L11.2578 32.2204ZM11.8502 33.9385V34.5586H12.0502V33.9385H11.8502ZM11.9502 34.4586H8.35156V34.6586H11.9502V34.4586ZM8.25161 34.5617C8.26838 35.1016 8.41484 35.5318 8.7036 35.8381L8.84914 35.7009C8.60404 35.4409 8.4673 35.0637 8.45151 34.5555L8.25161 34.5617ZM8.70399 35.8385C8.99434 36.1431 9.39931 36.2895 9.9043 36.2895V36.0895C9.43924 36.0895 9.09225 35.9559 8.84874 35.7005L8.70399 35.8385ZM9.9043 36.2895C10.2294 36.2895 10.5327 36.2596 10.8139 36.1993L10.772 36.0038C10.5063 36.0607 10.2172 36.0895 9.9043 36.0895V36.2895ZM10.8148 36.1992C11.0991 36.1356 11.4016 36.0323 11.7222 35.8902L11.6411 35.7074C11.3301 35.8453 11.0402 35.9438 10.7712 36.004L10.8148 36.1992ZM11.5816 35.7988V36.7314H11.7816V35.7988H11.5816ZM11.6386 36.6412C11.3658 36.7712 11.0907 36.8628 10.8131 36.9165L10.851 37.1128C11.1463 37.0558 11.4376 36.9586 11.7247 36.8217L11.6386 36.6412ZM10.8131 36.9165C10.5342 36.9703 10.2136 36.9977 9.85059 36.9977V37.1977C10.2232 37.1977 10.5569 37.1696 10.851 37.1128L10.8131 36.9165ZM9.64062 32.2711C9.25293 32.2711 8.93241 32.395 8.6895 32.6486L8.83394 32.7869C9.03374 32.5783 9.29915 32.4711 9.64062 32.4711V32.2711ZM8.68899 32.6491C8.45057 32.9018 8.31515 33.2628 8.27155 33.719L8.47064 33.738C8.51167 33.3088 8.63667 32.996 8.83445 32.7864L8.68899 32.6491ZM8.37109 33.8285H10.8223V33.6285H8.37109V33.8285ZM10.9223 33.7271C10.9155 33.2673 10.8047 32.9028 10.5738 32.6503L10.4262 32.7853C10.612 32.9885 10.716 33.2978 10.7223 33.73L10.9223 33.7271ZM10.5743 32.6508C10.3437 32.395 10.0282 32.2711 9.64062 32.2711V32.4711C9.98222 32.4711 10.2397 32.5783 10.4257 32.7847L10.5743 32.6508ZM16.5645 31.5508L16.6639 31.5612L16.6733 31.4721L16.5857 31.4531L16.5645 31.5508ZM16.4521 32.6201L16.4288 32.7174L16.5397 32.744L16.5516 32.6306L16.4521 32.6201ZM14.8262 33.0107L14.7539 32.9416L14.7535 32.942L14.8262 33.0107ZM14.4014 37V37.1H14.5014V37H14.4014ZM13.2539 37H13.1539V37.1H13.2539V37ZM13.2539 31.5996V31.4996H13.1539V31.5996H13.2539ZM14.1523 31.5996L14.2511 31.5839L14.2377 31.4996H14.1523V31.5996ZM14.3037 32.5518L14.205 32.5675L14.2184 32.6518H14.3037V32.5518ZM14.3623 32.5518V32.6518H14.4211L14.4497 32.6003L14.3623 32.5518ZM15.0605 31.7852L15.0059 31.7014L15.0055 31.7017L15.0605 31.7852ZM15.9932 31.602C16.2204 31.602 16.403 31.618 16.5432 31.6485L16.5857 31.4531C16.4264 31.4184 16.2282 31.402 15.9932 31.402V31.602ZM16.465 31.5403L16.3527 32.6097L16.5516 32.6306L16.6639 31.5612L16.465 31.5403ZM16.4755 32.5229C16.3047 32.4819 16.1276 32.4615 15.9443 32.4615V32.6615C16.1126 32.6615 16.2741 32.6802 16.4288 32.7174L16.4755 32.5229ZM15.9443 32.4615C15.4613 32.4615 15.0614 32.6202 14.7539 32.9416L14.8984 33.0799C15.1639 32.8023 15.5094 32.6615 15.9443 32.6615V32.4615ZM14.7535 32.942C14.4499 33.2631 14.3014 33.6781 14.3014 34.1777H14.5014C14.5014 33.7204 14.636 33.3574 14.8988 33.0795L14.7535 32.942ZM14.3014 34.1777V37H14.5014V34.1777H14.3014ZM14.4014 36.9H13.2539V37.1H14.4014V36.9ZM13.3539 37V31.5996H13.1539V37H13.3539ZM13.2539 31.6996H14.1523V31.4996H13.2539V31.6996ZM14.0536 31.6153L14.205 32.5675L14.4025 32.5361L14.2511 31.5839L14.0536 31.6153ZM14.3037 32.6518H14.3623V32.4518H14.3037V32.6518ZM14.4497 32.6003C14.6215 32.2911 14.8436 32.0479 15.1156 31.8687L15.0055 31.7017C14.7046 31.9 14.4612 32.1679 14.2749 32.5032L14.4497 32.6003ZM15.1151 31.8689C15.3893 31.6903 15.6814 31.602 15.9932 31.602V31.402C15.6409 31.402 15.3112 31.5025 15.0059 31.7014L15.1151 31.8689ZM20.9492 37L20.8536 37.0292L20.8752 37.1H20.9492V37ZM20.7197 36.248L20.8154 36.2189L20.7938 36.148H20.7197V36.248ZM20.6807 36.248V36.148H20.6323L20.6023 36.186L20.6807 36.248ZM19.8945 36.9219L19.9351 37.0133L19.9361 37.0128L19.8945 36.9219ZM17.6338 36.668L17.5643 36.7399L17.5647 36.7402L17.6338 36.668ZM17.8096 34.1924L17.7531 34.1099L17.8096 34.1924ZM19.6992 33.7285L19.7023 33.8285L19.7024 33.8285L19.6992 33.7285ZM20.6318 33.6992L20.635 33.7992L20.7318 33.7961V33.6992H20.6318ZM20.3877 32.6396L20.3143 32.7075L20.3156 32.709L20.3877 32.6396ZM18.1123 32.791L18.0212 32.8322L18.0631 32.9248L18.155 32.8814L18.1123 32.791ZM17.7412 31.9707L17.6949 31.8821L17.6111 31.9258L17.6501 32.0119L17.7412 31.9707ZM18.7031 31.624L18.725 31.7216L18.7259 31.7214L18.7031 31.624ZM21.2422 31.9512L21.177 32.027L21.1773 32.0273L21.2422 31.9512ZM21.7695 37V37.1H21.8695V37H21.7695ZM20.2412 35.8721L20.309 35.9456L20.309 35.9456L20.2412 35.8721ZM20.6221 34.4219H20.7221V34.3176L20.6178 34.322L20.6221 34.4219ZM19.9287 34.4512L19.9323 34.5511L19.9329 34.5511L19.9287 34.4512ZM18.7471 34.7246L18.8018 34.8083L18.802 34.8082L18.7471 34.7246ZM18.5957 36.0234L18.5275 36.0966L18.5284 36.0974L18.5957 36.0234ZM21.0449 36.9708L20.8154 36.2189L20.6241 36.2772L20.8536 37.0292L21.0449 36.9708ZM20.7197 36.148H20.6807V36.348H20.7197V36.148ZM20.6023 36.186C20.3476 36.5075 20.0973 36.7193 19.853 36.8309L19.9361 37.0128C20.2191 36.8835 20.4929 36.6462 20.7591 36.3101L20.6023 36.186ZM19.8539 36.8305C19.6073 36.9401 19.2839 36.9977 18.8789 36.9977V37.1977C19.3007 37.1977 19.6544 37.138 19.9351 37.0133L19.8539 36.8305ZM18.8789 36.9977C18.3665 36.9977 17.979 36.8598 17.7029 36.5957L17.5647 36.7402C17.8876 37.0491 18.3301 37.1977 18.8789 37.1977V36.9977ZM17.7033 36.5961C17.4315 36.3333 17.2895 35.9569 17.2895 35.4521H17.0895C17.0895 35.9956 17.2436 36.4298 17.5643 36.7399L17.7033 36.5961ZM17.2895 35.4521C17.2895 34.9242 17.4832 34.5371 17.8661 34.2749L17.7531 34.1099C17.3091 34.414 17.0895 34.8668 17.0895 35.4521H17.2895ZM17.8661 34.2749C18.2562 34.0076 18.8633 33.8543 19.7023 33.8285L19.6961 33.6286C18.8424 33.6548 18.1897 33.8107 17.7531 34.1099L17.8661 34.2749ZM19.7024 33.8285L20.635 33.7992L20.6287 33.5993L19.6961 33.6286L19.7024 33.8285ZM20.7318 33.6992V33.4111H20.5318V33.6992H20.7318ZM20.7318 33.4111C20.7318 33.0523 20.6473 32.7654 20.4598 32.5703L20.3156 32.709C20.4536 32.8524 20.5318 33.0799 20.5318 33.4111H20.7318ZM20.4611 32.5718C20.2756 32.3711 19.9946 32.2809 19.6406 32.2809V32.4809C19.9638 32.4809 20.1808 32.5631 20.3143 32.7075L20.4611 32.5718ZM19.6406 32.2809C19.354 32.2809 19.0783 32.323 18.8142 32.4077L18.8752 32.5982C19.1189 32.5201 19.3739 32.4809 19.6406 32.4809V32.2809ZM18.8142 32.4077C18.5563 32.4904 18.308 32.588 18.0696 32.7006L18.155 32.8814C18.3853 32.7727 18.6254 32.6782 18.8752 32.5982L18.8142 32.4077ZM18.2034 32.7498L17.8323 31.9295L17.6501 32.0119L18.0212 32.8322L18.2034 32.7498ZM17.7875 32.0593C18.0722 31.9107 18.3845 31.798 18.725 31.7216L18.6812 31.5264C18.3251 31.6063 17.9962 31.7247 17.6949 31.8821L17.7875 32.0593ZM18.7259 31.7214C19.0679 31.6415 19.389 31.602 19.6895 31.602V31.402C19.3715 31.402 19.035 31.4438 18.6804 31.5266L18.7259 31.7214ZM19.6895 31.602C20.3638 31.602 20.854 31.7492 21.177 32.027L21.3074 31.8753C20.9338 31.5541 20.3888 31.402 19.6895 31.402V31.602ZM21.1773 32.0273C21.4989 32.3012 21.6695 32.7384 21.6695 33.3623H21.8695C21.8695 32.7036 21.6886 32.2001 21.307 31.875L21.1773 32.0273ZM21.6695 33.3623V37H21.8695V33.3623H21.6695ZM21.7695 36.9H20.9492V37.1H21.7695V36.9ZM19.2402 36.3188C19.6762 36.3188 20.036 36.1973 20.309 35.9456L20.1734 35.7986C19.9451 36.009 19.6376 36.1187 19.2402 36.1187V36.3188ZM20.309 35.9456C20.5878 35.6883 20.7221 35.332 20.7221 34.8906H20.5221C20.5221 35.2891 20.4025 35.5871 20.1734 35.7986L20.309 35.9456ZM20.7221 34.8906V34.4219H20.5221V34.8906H20.7221ZM20.6178 34.322L19.9245 34.3513L19.9329 34.5511L20.6263 34.5218L20.6178 34.322ZM19.9251 34.3512C19.3794 34.371 18.9629 34.4629 18.6921 34.6411L18.802 34.8082C19.0261 34.6608 19.3973 34.5704 19.9323 34.5511L19.9251 34.3512ZM18.6924 34.6409C18.4157 34.8217 18.2809 35.1016 18.2809 35.4619H18.4809C18.4809 35.1582 18.5902 34.9466 18.8018 34.8083L18.6924 34.6409ZM18.2809 35.4619C18.2809 35.7237 18.3595 35.94 18.5275 36.0966L18.6639 35.9503C18.5455 35.8399 18.4809 35.6819 18.4809 35.4619H18.2809ZM18.5284 36.0974C18.6972 36.2509 18.9406 36.3188 19.2402 36.3188V36.1187C18.967 36.1187 18.7807 36.0564 18.663 35.9494L18.5284 36.0974ZM28.1221 37V37.1H28.2221V37H28.1221ZM26.9697 37H26.8697V37.1H26.9697V37ZM26.7158 32.7471L26.6381 32.81L26.6387 32.8107L26.7158 32.7471ZM24.5186 37V37.1H24.6186V37H24.5186ZM23.3711 37H23.2711V37.1H23.3711V37ZM23.3711 31.5996V31.4996H23.2711V31.5996H23.3711ZM24.2695 31.5996L24.367 31.5774L24.3493 31.4996H24.2695V31.5996ZM24.4307 32.3076L24.3332 32.3298L24.3509 32.4076H24.4307V32.3076ZM24.4893 32.3076V32.4076H24.5443L24.5738 32.3611L24.4893 32.3076ZM25.1826 31.7119L25.1403 31.6213L25.1826 31.7119ZM28.1221 36.9H26.9697V37.1H28.1221V36.9ZM27.0697 37V33.6797H26.8697V37H27.0697ZM27.0697 33.6797C27.0697 33.2522 26.9834 32.9141 26.7929 32.6834L26.6387 32.8107C26.7868 32.9902 26.8697 33.2738 26.8697 33.6797H27.0697ZM26.7935 32.6842C26.602 32.4476 26.3025 32.3395 25.9199 32.3395V32.5395C26.2665 32.5395 26.4976 32.6364 26.6381 32.81L26.7935 32.6842ZM25.9199 32.3395C25.4152 32.3395 25.0262 32.4893 24.7768 32.8074L24.9342 32.9308C25.1339 32.6761 25.4546 32.5395 25.9199 32.5395V32.3395ZM24.7768 32.8074C24.5308 33.1212 24.4186 33.63 24.4186 34.3096H24.6186C24.6186 33.6415 24.731 33.19 24.9342 32.9308L24.7768 32.8074ZM24.4186 34.3096V37H24.6186V34.3096H24.4186ZM24.5186 36.9H23.3711V37.1H24.5186V36.9ZM23.4711 37V31.5996H23.2711V37H23.4711ZM23.3711 31.6996H24.2695V31.4996H23.3711V31.6996ZM24.172 31.6218L24.3332 32.3298L24.5282 32.2854L24.367 31.5774L24.172 31.6218ZM24.4307 32.4076H24.4893V32.2076H24.4307V32.4076ZM24.5738 32.3611C24.7254 32.1215 24.9412 31.9351 25.225 31.8025L25.1403 31.6213C24.825 31.7687 24.5786 31.9794 24.4048 32.2541L24.5738 32.3611ZM25.225 31.8025C25.5099 31.6693 25.8272 31.602 26.1787 31.602V31.402C25.801 31.402 25.4543 31.4745 25.1403 31.6213L25.225 31.8025ZM26.1787 31.602C26.8106 31.602 27.2663 31.7626 27.5649 32.0664C27.8638 32.3706 28.0221 32.8353 28.0221 33.4795H28.2221C28.2221 32.8053 28.0564 32.2813 27.7076 31.9262C27.3584 31.5709 26.8424 31.402 26.1787 31.402V31.602ZM28.0221 33.4795V37H28.2221V33.4795H28.0221ZM29.9678 32.2441L29.8888 32.1828L29.8887 32.1829L29.9678 32.2441ZM33.1807 32.2881L33.0991 32.3459L33.1289 32.3881H33.1807V32.2881ZM33.2393 32.2881V32.3881H33.3546L33.3383 32.2739L33.2393 32.2881ZM33.1562 29.4023V29.3023H33.0563V29.4023H33.1562ZM34.3086 29.4023H34.4086V29.3023H34.3086V29.4023ZM34.3086 37V37.1H34.4086V37H34.3086ZM33.4102 37L33.3139 37.0272L33.3345 37.1H33.4102V37ZM33.21 36.292L33.3062 36.2648L33.2856 36.192H33.21V36.292ZM33.1562 36.292V36.192H33.1035L33.0737 36.2355L33.1562 36.292ZM32.8779 35.7744L32.9555 35.8376L32.9558 35.8371L32.8779 35.7744ZM33.21 34.4805L33.31 34.4816V34.4805H33.21ZM30.9053 32.9326L30.9884 32.9883L30.9886 32.9879L30.9053 32.9326ZM30.8955 35.7012L30.8124 35.7568L30.8127 35.7572L30.8955 35.7012ZM31.54 36.9977C30.8939 36.9977 30.3988 36.7654 30.042 36.3041L29.8838 36.4264C30.2822 36.9416 30.8385 37.1977 31.54 37.1977V36.9977ZM30.042 36.3041C29.6827 35.8394 29.4965 35.1788 29.4965 34.3096H29.2965C29.2965 35.2046 29.4879 35.9145 29.8838 36.4264L30.042 36.3041ZM29.4965 34.3096C29.4965 33.4372 29.6842 32.7733 30.0468 32.3054L29.8887 32.1829C29.4896 32.698 29.2965 33.4111 29.2965 34.3096H29.4965ZM30.0468 32.3055C30.4102 31.8373 30.9105 31.602 31.5596 31.602V31.402C30.8545 31.402 30.2935 31.6614 29.8888 32.1828L30.0468 32.3055ZM31.5596 31.602C32.2407 31.602 32.7489 31.8513 33.0991 32.3459L33.2623 32.2303C32.8703 31.6767 32.2977 31.402 31.5596 31.402V31.602ZM33.1807 32.3881H33.2393V32.1881H33.1807V32.3881ZM33.3383 32.2739C33.2832 31.8884 33.2562 31.5878 33.2562 31.3701H33.0563C33.0563 31.6017 33.0847 31.9131 33.1403 32.3022L33.3383 32.2739ZM33.2562 31.3701V29.4023H33.0563V31.3701H33.2562ZM33.1562 29.5023H34.3086V29.3023H33.1562V29.5023ZM34.2086 29.4023V37H34.4086V29.4023H34.2086ZM34.3086 36.9H33.4102V37.1H34.3086V36.9ZM33.5064 36.9728L33.3062 36.2648L33.1137 36.3192L33.3139 37.0272L33.5064 36.9728ZM33.21 36.192H33.1562V36.392H33.21V36.192ZM33.0737 36.2355C32.7264 36.7426 32.2202 36.9977 31.54 36.9977V37.1977C32.2792 37.1977 32.8504 36.9156 33.2388 36.3485L33.0737 36.2355ZM31.8477 36.2699C32.3374 36.2699 32.715 36.1326 32.9555 35.8376L32.8004 35.7112C32.6111 35.9435 32.3019 36.0699 31.8477 36.0699V36.2699ZM32.9558 35.8371C33.1919 35.5439 33.3034 35.0848 33.31 34.4816L33.11 34.4794C33.1035 35.0675 32.9937 35.4711 32.8 35.7117L32.9558 35.8371ZM33.31 34.4805V34.3193H33.11V34.4805H33.31ZM33.31 34.3193C33.31 33.6337 33.1995 33.1218 32.9571 32.808L32.7988 32.9303C32.9991 33.1894 33.11 33.6443 33.11 34.3193H33.31ZM32.9571 32.808C32.7113 32.4899 32.3306 32.3395 31.8379 32.3395V32.5395C32.2892 32.5395 32.6019 32.6754 32.7988 32.9303L32.9571 32.808ZM31.8379 32.3395C31.4017 32.3395 31.0591 32.5199 30.8219 32.8773L30.9886 32.9879C31.1877 32.6878 31.4668 32.5395 31.8379 32.5395V32.3395ZM30.8222 32.877C30.5886 33.2257 30.4781 33.7138 30.4781 34.3291H30.6781C30.6781 33.7334 30.7858 33.2906 30.9883 32.9883L30.8222 32.877ZM30.4781 34.3291C30.4781 34.9374 30.5851 35.4176 30.8124 35.7568L30.9786 35.6455C30.7827 35.3532 30.6781 34.9187 30.6781 34.3291H30.4781ZM30.8127 35.7572C31.0454 36.1009 31.396 36.2699 31.8477 36.2699V36.0699C31.453 36.0699 31.1688 35.9264 30.9783 35.6451L30.8127 35.7572ZM39.3281 37L39.2325 37.0292L39.2541 37.1H39.3281V37ZM39.0986 36.248L39.1943 36.2189L39.1727 36.148H39.0986V36.248ZM39.0596 36.248V36.148H39.0112L38.9812 36.186L39.0596 36.248ZM38.2734 36.9219L38.3141 37.0133L38.315 37.0128L38.2734 36.9219ZM36.0127 36.668L35.9432 36.7399L35.9436 36.7402L36.0127 36.668ZM36.1885 34.1924L36.132 34.1099L36.1885 34.1924ZM38.0781 33.7285L38.0812 33.8285L38.0813 33.8285L38.0781 33.7285ZM39.0107 33.6992L39.0139 33.7992L39.1107 33.7961V33.6992H39.0107ZM38.7666 32.6396L38.6932 32.7075L38.6945 32.709L38.7666 32.6396ZM36.4912 32.791L36.4001 32.8322L36.442 32.9248L36.5339 32.8814L36.4912 32.791ZM36.1201 31.9707L36.0738 31.8821L35.9901 31.9258L36.029 32.0119L36.1201 31.9707ZM37.082 31.624L37.1039 31.7216L37.1048 31.7214L37.082 31.624ZM39.6211 31.9512L39.5559 32.027L39.5562 32.0273L39.6211 31.9512ZM40.1484 37V37.1H40.2484V37H40.1484ZM38.6201 35.8721L38.6879 35.9456L38.6879 35.9456L38.6201 35.8721ZM39.001 34.4219H39.101V34.3176L38.9968 34.322L39.001 34.4219ZM38.3076 34.4512L38.3112 34.5511L38.3118 34.5511L38.3076 34.4512ZM37.126 34.7246L37.1807 34.8083L37.1809 34.8082L37.126 34.7246ZM36.9746 36.0234L36.9064 36.0966L36.9073 36.0974L36.9746 36.0234ZM39.4238 36.9708L39.1943 36.2189L39.003 36.2772L39.2325 37.0292L39.4238 36.9708ZM39.0986 36.148H39.0596V36.348H39.0986V36.148ZM38.9812 36.186C38.7265 36.5075 38.4762 36.7193 38.2319 36.8309L38.315 37.0128C38.598 36.8835 38.8718 36.6462 39.138 36.3101L38.9812 36.186ZM38.2328 36.8305C37.9862 36.9401 37.6628 36.9977 37.2578 36.9977V37.1977C37.6796 37.1977 38.0333 37.138 38.3141 37.0133L38.2328 36.8305ZM37.2578 36.9977C36.7455 36.9977 36.3579 36.8598 36.0818 36.5957L35.9436 36.7402C36.2665 37.0491 36.709 37.1977 37.2578 37.1977V36.9977ZM36.0822 36.5961C35.8104 36.3333 35.6684 35.9569 35.6684 35.4521H35.4684C35.4684 35.9956 35.6225 36.4298 35.9432 36.7399L36.0822 36.5961ZM35.6684 35.4521C35.6684 34.9242 35.8621 34.5371 36.245 34.2749L36.132 34.1099C35.688 34.414 35.4684 34.8668 35.4684 35.4521H35.6684ZM36.245 34.2749C36.6351 34.0076 37.2422 33.8543 38.0812 33.8285L38.0751 33.6286C37.2213 33.6548 36.5686 33.8107 36.132 34.1099L36.245 34.2749ZM38.0813 33.8285L39.0139 33.7992L39.0076 33.5993L38.075 33.6286L38.0813 33.8285ZM39.1107 33.6992V33.4111H38.9107V33.6992H39.1107ZM39.1107 33.4111C39.1107 33.0523 39.0262 32.7654 38.8387 32.5703L38.6945 32.709C38.8325 32.8524 38.9107 33.0799 38.9107 33.4111H39.1107ZM38.84 32.5718C38.6545 32.3711 38.3735 32.2809 38.0195 32.2809V32.4809C38.3427 32.4809 38.5597 32.5631 38.6932 32.7075L38.84 32.5718ZM38.0195 32.2809C37.7329 32.2809 37.4573 32.323 37.1931 32.4077L37.2542 32.5982C37.4978 32.5201 37.7528 32.4809 38.0195 32.4809V32.2809ZM37.1931 32.4077C36.9352 32.4904 36.6869 32.588 36.4485 32.7006L36.5339 32.8814C36.7642 32.7727 37.0043 32.6782 37.2542 32.5982L37.1931 32.4077ZM36.5823 32.7498L36.2112 31.9295L36.029 32.0119L36.4001 32.8322L36.5823 32.7498ZM36.1664 32.0593C36.4511 31.9107 36.7634 31.798 37.1039 31.7216L37.0601 31.5264C36.704 31.6063 36.3751 31.7247 36.0738 31.8821L36.1664 32.0593ZM37.1048 31.7214C37.4468 31.6415 37.7679 31.602 38.0684 31.602V31.402C37.7504 31.402 37.4139 31.4438 37.0593 31.5266L37.1048 31.7214ZM38.0684 31.602C38.7428 31.602 39.2329 31.7492 39.5559 32.027L39.6863 31.8753C39.3127 31.5541 38.7677 31.402 38.0684 31.402V31.602ZM39.5562 32.0273C39.8778 32.3012 40.0484 32.7384 40.0484 33.3623H40.2484C40.2484 32.7036 40.0675 32.2001 39.6859 31.875L39.5562 32.0273ZM40.0484 33.3623V37H40.2484V33.3623H40.0484ZM40.1484 36.9H39.3281V37.1H40.1484V36.9ZM37.6191 36.3188C38.0551 36.3188 38.4149 36.1973 38.6879 35.9456L38.5523 35.7986C38.324 36.009 38.0166 36.1187 37.6191 36.1187V36.3188ZM38.6879 35.9456C38.9667 35.6883 39.101 35.332 39.101 34.8906H38.901C38.901 35.2891 38.7814 35.5871 38.5523 35.7986L38.6879 35.9456ZM39.101 34.8906V34.4219H38.901V34.8906H39.101ZM38.9968 34.322L38.3034 34.3513L38.3118 34.5511L39.0052 34.5218L38.9968 34.322ZM38.304 34.3512C37.7583 34.371 37.3418 34.4629 37.071 34.6411L37.1809 34.8082C37.405 34.6608 37.7762 34.5704 38.3112 34.5511L38.304 34.3512ZM37.0713 34.6409C36.7946 34.8217 36.6598 35.1016 36.6598 35.4619H36.8598C36.8598 35.1582 36.9691 34.9466 37.1807 34.8083L37.0713 34.6409ZM36.6598 35.4619C36.6598 35.7237 36.7384 35.94 36.9064 36.0966L37.0428 35.9503C36.9244 35.8399 36.8598 35.6819 36.8598 35.4619H36.6598ZM36.9073 36.0974C37.0761 36.2509 37.3195 36.3188 37.6191 36.3188V36.1187C37.3459 36.1187 37.1596 36.0564 37.0419 35.9494L36.9073 36.0974Z" fill="#A8A8A8"/>
</svg>
