<?xml version="1.0" encoding="utf-8"?>
<!-- Generator: Adobe Illustrator 24.2.0, SVG Export Plug-In . SVG Version: 6.00 Build 0)  -->
<svg version="1.1" id="Layer_1" xmlns="http://www.w3.org/2000/svg" xmlns:xlink="http://www.w3.org/1999/xlink" x="0px" y="0px"
	 viewBox="0 0 1000 1000" style="enable-background:new 0 0 1000 1000;" xml:space="preserve">
<style type="text/css">
	.st0{display:none;fill:#EBE6FF;}
	.st1{fill:none;stroke:#841E8E;stroke-width:9.4067;stroke-miterlimit:10;}
	.st2{fill:#841E8E;}
	.st3{fill:#2C2E72;}
	.st4{fill:#2D2C6D;}
	.st5{fill:url(#SVGID_1_);}
	.st6{fill:url(#SVGID_2_);}
	.st7{fill:url(#SVGID_3_);}
	.st8{fill:url(#SVGID_4_);}
	.st9{fill:none;}
	.st10{fill:url(#SVGID_5_);}
	.st11{fill:url(#SVGID_6_);}
	.st12{fill:url(#SVGID_7_);}
	.st13{fill:none;stroke:#231F20;stroke-width:11.3386;stroke-linejoin:round;stroke-miterlimit:10;}
	.st14{fill:url(#SVGID_8_);}
	.st15{fill:#841E8E;stroke:#FFFFFF;stroke-width:5.6693;stroke-miterlimit:10;}
	.st16{fill:#841E8E;stroke:#FFFFFF;stroke-width:8.5039;stroke-miterlimit:10;}
	.st17{fill:#841E8E;stroke:#FFFFFF;stroke-width:2.8346;stroke-miterlimit:10;}
</style>
<rect x="2.09" class="st0" width="1000" height="1000"/>
<g>
	<path id="SVGID_x5F_1_x5F_" class="st9" d="M1944.19,500c0,242.56-196.63,439.19-439.19,439.19S1065.81,742.56,1065.81,500
		S1262.44,60.81,1505,60.81S1944.19,257.44,1944.19,500z"/>
	<text>	<textPath  xlink:href="#SVGID_x5F_1_x5F_" startOffset="4600%">
<tspan  class="st2" style="font-family:'MaragsaDisplay'; font-size:65.1969px; letter-spacing:-30;">PROGRAM  PENGENALAN  LINGKUNGAN KAMPUS</tspan>	</textPath>
</text>
</g>
<g>
	<path id="SVGID_x5F_2_x5F_" class="st9" d="M1944.19,500c0,242.56-196.63,439.19-439.19,439.19S1065.81,742.56,1065.81,500
		S1262.44,60.81,1505,60.81S1944.19,257.44,1944.19,500z"/>
	<text>	<textPath  xlink:href="#SVGID_x5F_2_x5F_" startOffset="5600%">
<tspan  class="st2" style="font-family:'MaragsaDisplay'; font-size:70.8661px; letter-spacing:140;">INSTITUT TEKNOLOGI SUMATERA</tspan>	</textPath>
</text>
</g>
<circle class="st1" cx="1505" cy="500" r="487.14"/>
<circle class="st1" cx="1505" cy="500" r="392.72"/>
<circle class="st2" cx="1062.11" cy="500" r="14.11"/>
<circle class="st2" cx="1950.3" cy="500" r="14.11"/>
<g>
	
		<text transform="matrix(1 0 0 1 1427.6096 804.4838)" class="st2" style="font-family:'MaragsaDisplay'; font-size:115.3995px; letter-spacing:-3;">2021</text>
</g>
<g>
	<g>
		<path class="st3" d="M581.28,570.42c3,0.13,5.81,0.82,8.44,2.05c2.63,1.23,4.92,2.86,6.87,4.89c1.95,2.03,3.49,4.39,4.62,7.07
			c1.13,2.68,1.7,5.53,1.7,8.56c0,3.03-0.57,5.89-1.7,8.59c-1.13,2.7-2.67,5.06-4.62,7.09c-1.95,2.03-4.24,3.65-6.87,4.87
			c-2.63,1.22-5.44,1.89-8.44,2.02v0.05h-21.17v26.16c0.3,1.07,0.9,2.04,1.8,2.92c0.9,0.88,1.88,1.49,2.95,1.82h-23.77
			c1.06-0.33,2.05-0.94,2.95-1.82c0.9-0.88,1.5-1.85,1.8-2.92v-66.61c-0.3-1.06-0.9-2.04-1.8-2.92c-0.9-0.88-1.88-1.49-2.95-1.82
			H581.28z M588.62,592.99c-0.13-2.86-0.8-5.52-2-7.96c-1.2-2.45-2.76-4.58-4.69-6.39c-1.93-1.81-4.15-3.24-6.67-4.27
			c-2.51-1.03-5.19-1.55-8.01-1.55h-7.14v40.4h7.14c2.83,0,5.51-0.52,8.04-1.55c2.53-1.03,4.75-2.46,6.67-4.29
			c1.91-1.83,3.47-3.98,4.67-6.44C587.83,598.47,588.49,595.82,588.62,592.99z"/>
		<path class="st3" d="M662.97,617.96v28.56H605.9c1.06-0.33,2.05-0.94,2.95-1.82c0.9-0.88,1.5-1.85,1.8-2.92v-66.61
			c-0.3-1.06-0.9-2.04-1.8-2.92c-0.9-0.88-1.88-1.49-2.95-1.82h23.77c-1.07,0.33-2.05,0.94-2.95,1.82c-0.9,0.88-1.5,1.86-1.8,2.92
			v68.96h9.54c2.66,0,5.38-0.5,8.16-1.5c2.78-1,5.37-2.55,7.76-4.67c2.4-2.11,4.5-4.82,6.32-8.11c1.81-3.3,3.1-7.26,3.87-11.88
			H662.97z"/>
		<path class="st3" d="M732.98,641.77c0.43,0.5,0.99,1,1.67,1.5c0.68,0.5,1.41,0.97,2.17,1.4c0.77,0.43,1.51,0.81,2.25,1.12
			c0.73,0.32,1.36,0.56,1.9,0.72H717.2c1.06-0.33,1.72-0.92,1.97-1.75c0.25-0.83,0.03-1.83-0.67-3l-23.22-32.21l-6.64,6.34v25.86
			c0.33,1.07,0.95,2.04,1.85,2.92c0.9,0.88,1.88,1.49,2.95,1.82h-23.77c1.06-0.33,2.05-0.94,2.95-1.82c0.9-0.88,1.5-1.85,1.8-2.92
			v-66.61c-0.3-1.06-0.9-2.04-1.8-2.92c-0.9-0.88-1.88-1.49-2.95-1.82h23.77c-1.07,0.33-2.05,0.94-2.95,1.82
			c-0.9,0.88-1.52,1.86-1.85,2.92v33.9l13.48-12.83l21.97-21.07c0.93-1.13,1.47-2.12,1.62-2.97c0.15-0.85-0.31-1.44-1.37-1.77h16.63
			c-0.7,0.17-1.47,0.39-2.32,0.67c-0.85,0.28-1.71,0.62-2.6,1.02c-0.88,0.4-1.74,0.86-2.57,1.37c-0.83,0.52-1.58,1.07-2.25,1.67
			l-26.31,25.17l28.16,41.59L732.98,641.77z"/>
	</g>
	<g>
		<path class="st4" d="M584.55,705.92h-42.26c0-7.53,25.33-33.98,25.33-41.94c0-1.72-1.58-2.28-3-2.28c-9.72,0-13.7,10.5-13.7,10.5
			l-5.15-12.34c5.54-4.95,10.01-4.95,14.96-4.95c7.49,0,19.01,7.15,18.75,14.96c-0.1,5.34-17.78,31-17.78,31s0.98,0.02,2.34,0.02
			c2.72,0,6.96-0.08,7.86-0.6c1.36-0.77,7.58-6.99,7.58-6.99L584.55,705.92L584.55,705.92z"/>
		<path class="st4" d="M644.26,681.16c0,18.83-10.08,25.67-22.23,25.67c-12.28,0-22.22-6.98-22.22-26.25
			c0-19.3,9.95-26.06,22.22-26.06C638.4,654.52,644.26,666.94,644.26,681.16z M615.24,690l10.39-22.55
			c-2.27-2.87-5.84-4.82-12.08-4.84h-0.02c-2.77,0-3.83,1.55-3.83,4.45c0,3.01,1.65,9.34,3.19,15.02
			C613.63,684.91,614.31,687.61,615.24,690z M633.65,694.14c0-3.47-1.53-9.32-3.02-14.04c-0.78-2.47-1.4-5.05-2.27-7.43L617.8,694.7
			c2.35,2.99,5.95,4.85,12.14,4.85C632.75,699.55,633.65,696.26,633.65,694.14z"/>
		<path class="st4" d="M701.39,705.92h-42.26c0-7.53,25.33-33.98,25.33-41.94c0-1.72-1.58-2.28-3-2.28c-9.72,0-13.7,10.5-13.7,10.5
			l-5.15-12.34c5.54-4.95,10.01-4.95,14.96-4.95c7.49,0,19.01,7.15,18.75,14.96c-0.1,5.34-17.78,31-17.78,31s0.98,0.02,2.34,0.02
			c2.72,0,6.96-0.08,7.86-0.6c1.36-0.77,7.58-6.99,7.58-6.99L701.39,705.92L701.39,705.92z"/>
		<path class="st4" d="M720.61,705.93c3.57-4.34,3.79-10.16,3.79-11.55l0-24.4c0,0-0.39-6.8-8.75-8.94c0-0.03,20.31-6.99,20.31-6.99
			l0.09,40.07c0,0.5,0.09,5.89,3.79,11.81H720.61z"/>
	</g>
</g>
<g>
	<linearGradient id="SVGID_3_" gradientUnits="userSpaceOnUse" x1="477.3651" y1="399.618" x2="498.2437" y2="399.618">
		<stop  offset="0" style="stop-color:#EDAD64"/>
		<stop  offset="1" style="stop-color:#C1465A"/>
	</linearGradient>
	<path class="st7" d="M477.37,388.02c7.57,6.99,14.57,14.75,20.88,23.19c-1.56-1.1-3.09-2.26-4.55-3.47
		C487.08,402.29,481.53,395.62,477.37,388.02z"/>
	<linearGradient id="SVGID_4_" gradientUnits="userSpaceOnUse" x1="223.3354" y1="554.6528" x2="719.9799" y2="554.6528">
		<stop  offset="0" style="stop-color:#D01788"/>
		<stop  offset="1" style="stop-color:#4C2D7F"/>
	</linearGradient>
	<path class="st8" d="M690.86,516.35c-39.02,43.84-104.51,50.75-154.34,19.21c-2.53,97.65-71.74,175.91-156.73,175.91
		c-83.09,0-151.07-74.74-156.45-169.29c17.82,67.02,61.6,114.38,112.78,114.38c67.04,0,121.37-81.22,121.37-181.43
		c0-9.53-0.5-18.89-1.45-28.02c-0.34-3.25-0.74-6.46-1.19-9.65c3.4,6.46,8.27,11.76,12.4,17.72c11.03,15.88,20.97,33.74,36.31,45.38
		c-2.02-3.62-3.78-7.41-5.25-11.33c6.35,9.65,17.1,14.97,26.85,21.13c3.05,1.76,6.16,3.44,9.31,5.01c0.12,0.07,0.27,0.14,0.4,0.2
		v0.02c8.61,4.27,17.59,7.89,26.89,10.8c0.65,0.21,1.27,0.4,1.9,0.59c0.1,0.04,0.2,0.07,0.3,0.1c0.96,0.3,1.96,0.57,2.97,0.84
		c0.02,0.01,0.05,0.03,0.08,0.01c9.69,2.66,19.95,3.92,30.53,3.56c4.84-0.17,9.59-0.67,14.22-1.5c8.43-1.47,16.49-3.96,24.06-7.35
		c1.93-0.86,3.83-1.78,5.69-2.76c0.02,0,0.03,0,0.05-0.02c16.06-6.43,30.81-16.51,42.98-30.2c22.99-25.83,32.18-59.29,28.28-91.82
		C727.07,437.87,720.22,483.37,690.86,516.35z"/>
	<linearGradient id="SVGID_5_" gradientUnits="userSpaceOnUse" x1="223.3334" y1="516.5664" x2="527.1782" y2="516.5664">
		<stop  offset="0" style="stop-color:#4C2D7F"/>
		<stop  offset="1" style="stop-color:#D01788"/>
	</linearGradient>
	<path class="st10" d="M495.14,450.96c1.54-0.55,3.12-0.86,4.7-0.98c-4.72-9.8-10.31-19.04-16.73-27.57
		c-4.82-6.41-10.02-12.34-15.58-17.76c1.91,7.36,3.52,14.9,4.82,22.56c2.62,15.51,3.97,31.56,3.97,47.92
		c0,52.15-13.75,101.44-38.72,138.76c-26.53,39.66-62.63,63.76-101.49,61.51c-45.78-2.66-60.58-20.96-84.53-40.88
		c-16.14-26.43-26.31-58.08-28.25-92.33c17.82,67.02,61.61,114.38,112.78,114.38c67.04,0,121.37-81.22,121.37-181.43
		c0-41.81-9.47-80.33-25.38-111c0-0.02-0.02-0.02-0.02-0.02c-1.15-2.21-2.33-4.39-3.54-6.51c45.74,17.29,82.24,58.28,98.63,110.46
		C518.01,466.47,507.4,461.41,495.14,450.96z"/>
	<path class="st3" d="M643.92,521.09c-35.18,14.1-79.16,8.6-113.34-12.81c-10.37-7.51-18.79-17.44-24.65-28.9
		c-1.9-3.69-3.52-7.52-4.85-11.49c6.01,9.86,14.02,18.37,23.55,24.86c2.91,1.98,5.95,3.77,9.14,5.35c0.11,0.07,0.25,0.13,0.38,0.2
		c-4.93-33.3-17.71-63.5-36.06-87.97c-1.56-1.09-3.09-2.26-4.55-3.47c-6.61-5.45-12.16-12.12-16.33-19.71
		c-14.42-13.26-30.91-23.67-48.82-30.43c1.22,2.12,2.4,4.3,3.54,6.51c0,0,0.02,0,0.02,0.01c10.99,21.2,18.92,46.15,22.74,73.34
		c3.4,6.46,7.19,12.67,11.32,18.63c1.38,1.98,2.77,4.01,4.19,6.06c9.15,13.29,18.83,27.57,30.43,38.26
		c17.59,16.22,25.18,21,46.53,28.97c24.82,9.27,59,12.36,89.18-2.76C638.32,524.74,642.06,522.07,643.92,521.09z"/>
	<linearGradient id="SVGID_6_" gradientUnits="userSpaceOnUse" x1="297.1576" y1="403.418" x2="695.9112" y2="403.418">
		<stop  offset="0" style="stop-color:#134977"/>
		<stop  offset="0.1783" style="stop-color:#1E5B8C"/>
		<stop  offset="0.5331" style="stop-color:#307BB2"/>
		<stop  offset="0.8195" style="stop-color:#3C8EC9"/>
		<stop  offset="1" style="stop-color:#4095D1"/>
	</linearGradient>
	<path class="st11" d="M695.91,414.73c0,51.77-38.39,94.59-88.25,101.52c-4.67,0.66-9.43,1-14.27,1c-10.58,0-20.8-1.61-30.4-4.6
		c-0.03,0.02-0.07,0-0.08-0.02c-1-0.3-1.98-0.61-2.94-0.95c-0.1-0.03-0.2-0.07-0.28-0.1c-0.63-0.22-1.25-0.43-1.88-0.66
		c-9.2-3.22-20.69-7.81-27.37-11.01c-0.13-0.06-23.76-14.56-32.58-23.65c-11.44-11.78-22.69-22.65-33.15-38.89
		c-8.5-13.22-15.35-27.62-20.23-42.9c-0.18-0.51-0.35-1.03-0.5-1.54c-0.03-0.08-0.05-0.17-0.08-0.25c-0.07-0.2-0.12-0.4-0.18-0.6
		c-3.42-10.12-8.39-19.53-14.62-27.95c0-0.02-0.02-0.02-0.02-0.02c-18.65-25.26-48.67-41.66-82.5-41.66
		c-17.94,0-34.78,4.6-49.43,12.69c17.41-27.37,48.04-45.54,82.88-45.54c21.83,0,41.99,7.13,58.28,19.17
		c16.59,12.27,29.18,29.63,35.45,49.78c0.07,0.22,0.13,0.43,0.2,0.66c3.75,12.03,10.71,22.64,19.92,30.79
		c12.09,10.76,28,17.29,45.44,17.29c10.51,0,20.48-2.38,29.37-6.61c0.17-0.08,0.33-0.15,0.48-0.22c1.98-0.86,3.85-1.88,5.63-3.07
		c0.2-0.1,0.38-0.23,0.58-0.37c10.26-6.98,17.01-18.74,17.01-32.09c0-21.43-17.37-38.8-38.8-38.8c-8.57,0-16.49,2.77-22.92,7.51
		c17.34-13.44,39.1-21.43,62.72-21.43c3.09,0,6.13,0.13,9.15,0.42C654.87,317.25,695.91,361.21,695.91,414.73z"/>
	<path class="st9" d="M446.22,359.37v0.25c0.07,0.08,0.12,0.17,0.17,0.25L446.22,359.37z M446.22,359.37v0.25
		c0.07,0.08,0.12,0.17,0.17,0.25L446.22,359.37z M446.22,359.37v0.25c0.07,0.08,0.12,0.17,0.17,0.25L446.22,359.37z"/>
	<linearGradient id="SVGID_7_" gradientUnits="userSpaceOnUse" x1="289.3663" y1="355.5021" x2="600.5337" y2="355.5021">
		<stop  offset="0" style="stop-color:#2E8ECD"/>
		<stop  offset="0.4471" style="stop-color:#2E8CCB"/>
		<stop  offset="0.6081" style="stop-color:#2C87C4"/>
		<stop  offset="0.7229" style="stop-color:#2A7DB9"/>
		<stop  offset="0.8157" style="stop-color:#2670A8"/>
		<stop  offset="0.8952" style="stop-color:#225E92"/>
		<stop  offset="0.9643" style="stop-color:#1C4877"/>
		<stop  offset="1" style="stop-color:#193A66"/>
	</linearGradient>
	<path class="st12" d="M608.8,365.15c0,17.54-10.94,33.69-25.48,43.56l-0.05,0.03l-0.05,0.05c-0.22,0.13-0.56,0.37-1,0.63
		c-2.29,1.51-4.78,2.84-7.39,3.99l-0.12,0.05c-11.11,5.28-23,7.96-35.4,7.96c-20.25,0-39.71-7.41-54.83-20.86
		c-11.23-9.95-19.53-22.79-24-37.14l-0.05-0.17l-0.05-0.15l-0.12-0.4c-5.25-16.84-16.03-31.97-30.35-42.59
		c-14.52-10.71-31.77-16.39-49.9-16.39c-9.68,0-19.46,1.18-28.53,3.49c-15.94,4.06-37.56,10.64-53.87,27.19
		c17.49-26.96,47.87-44.8,82.4-44.8c21.83,0,41.99,7.13,58.28,19.17c16.59,12.27,29.18,29.63,35.45,49.78
		c0.07,0.22,0.13,0.43,0.2,0.66c3.75,12.03,10.71,22.64,19.92,30.79c12.09,10.76,28,17.29,45.44,17.29
		c10.51,0,20.48-2.38,29.37-6.61c0.17-0.08,0.33-0.15,0.48-0.22c1.98-0.86,3.85-1.88,5.63-3.07c0.2-0.1,0.38-0.23,0.58-0.37
		c10.27-6.98,17.01-18.74,17.01-32.09c0-21.43-17.37-38.8-38.8-38.8c-8.57,0-16.49,2.77-22.92,7.51c1.63-1.26,3.29-2.47,4.98-3.64
		c0,0,0,0,0.02,0c24.58-11.36,38.54-12.04,54.18-3.6C602.26,333.09,608.8,349.98,608.8,365.15z"/>
	<g>
		<g>
			<g>
				<linearGradient id="SVGID_8_" gradientUnits="userSpaceOnUse" x1="505.8187" y1="309.1645" x2="660.0241" y2="309.1645">
					<stop  offset="0" style="stop-color:#4C2D7F"/>
					<stop  offset="1" style="stop-color:#D01788"/>
				</linearGradient>
				<path class="st14" d="M660.02,320.04c-0.17-0.12-0.32-0.22-0.48-0.32c-24.96-29.47-65.61-43.34-104.86-36.36
					c-3.04,0.55-6.08,1.21-9.1,2.01c-0.53,0.2-1.08,0.42-1.64,0.66c-11.98,5.15-19.4,16.38-20.06,28.29
					c-9.82,6.81-16.99,18.05-16.46,29.42c-4.5-13.45,0.8-28.3,12.56-36.46c0.65-11.91,8.09-23.12,20.06-28.29
					c0.55-0.23,1.1-0.45,1.64-0.65c3.02-0.81,6.06-1.48,9.1-2.01C593,268.83,635.81,285.82,660.02,320.04z"/>
			</g>
			<g>
				<linearGradient id="SVGID_9_" gradientUnits="userSpaceOnUse" x1="507.3847" y1="312.6989" x2="659.5425" y2="312.6989">
					<stop  offset="0" style="stop-color:#D01788"/>
					<stop  offset="1" style="stop-color:#4C2D7F"/>
				</linearGradient>
				<path style="fill:url(#SVGID_9_);" d="M659.54,319.72c-21.44-14.62-48.02-21.38-74.83-18.44c-8.8,0.96-17.62,2.97-26.29,6.1
					c-2.24,0.8-4.47,1.68-6.69,2.64c-9.83,4.24-18.75,9.67-26.68,16.05c-6.59,5.32-12.49,11.28-17.62,17.74
					c0-0.02-0.02-0.05-0.02-0.07c-0.53-11.36,6.64-22.61,16.46-29.42c0.66-11.91,8.09-23.14,20.06-28.29
					c0.56-0.25,1.11-0.47,1.64-0.66c3.02-0.8,6.06-1.46,9.1-2.01C593.93,276.39,634.58,290.26,659.54,319.72z"/>
			</g>
		</g>
	</g>
</g>
<path class="st13" d="M249.59,528.88"/>
<linearGradient id="SVGID_10_" gradientUnits="userSpaceOnUse" x1="345.8222" y1="612.7652" x2="345.8222" y2="612.7652">
	<stop  offset="0" style="stop-color:#4C2D7F"/>
	<stop  offset="1" style="stop-color:#D01788"/>
</linearGradient>
<path style="fill:url(#SVGID_10_);" d="M345.82,612.77"/>
<g>
	<path class="st2" d="M1526.23,381.57c7.57,6.99,14.57,14.75,20.88,23.19c-1.56-1.1-3.09-2.26-4.55-3.47
		C1535.94,395.84,1530.39,389.16,1526.23,381.57z"/>
	<path class="st2" d="M1739.72,509.89c-39.02,43.84-104.51,50.75-154.34,19.21c-2.53,97.65-71.74,175.91-156.73,175.91
		c-83.09,0-151.07-74.74-156.45-169.29c17.82,67.02,61.6,114.38,112.78,114.38c67.04,0,121.37-81.22,121.37-181.43
		c0-9.53-0.5-18.89-1.45-28.02c-0.34-3.25-0.74-6.46-1.19-9.65c3.4,6.46,8.27,11.76,12.4,17.72c11.03,15.88,20.97,33.74,36.31,45.38
		c-2.02-3.62-3.78-7.41-5.25-11.33c6.35,9.65,17.1,14.97,26.85,21.13c3.05,1.76,6.16,3.44,9.31,5.01c0.12,0.07,0.27,0.14,0.4,0.2
		v0.02c8.61,4.27,17.59,7.89,26.89,10.8c0.65,0.21,1.27,0.4,1.9,0.59c0.1,0.04,0.2,0.07,0.3,0.1c0.96,0.3,1.96,0.57,2.97,0.84
		c0.02,0.01,0.05,0.03,0.08,0.01c9.69,2.66,19.95,3.92,30.53,3.56c4.84-0.17,9.59-0.67,14.22-1.5c8.43-1.47,16.49-3.96,24.06-7.35
		c1.93-0.86,3.83-1.78,5.69-2.76c0.02,0,0.03,0,0.05-0.02c16.06-6.43,30.81-16.51,42.98-30.2c22.99-25.83,32.18-59.29,28.28-91.82
		C1775.93,431.41,1769.08,476.91,1739.72,509.89z"/>
	<path class="st2" d="M1544,444.5c1.54-0.55,3.12-0.86,4.7-0.98c-4.72-9.8-10.31-19.04-16.73-27.57
		c-4.82-6.41-10.02-12.34-15.58-17.76c1.91,7.36,3.52,14.9,4.82,22.56c2.62,15.51,3.97,31.56,3.97,47.92
		c0,52.15-13.75,101.44-38.72,138.76c-26.53,39.66-62.63,63.76-101.49,61.51c-45.78-2.66-60.58-20.96-84.53-40.88
		c-16.14-26.43-26.31-58.08-28.25-92.33c17.82,67.02,61.61,114.38,112.78,114.38c67.04,0,121.37-81.22,121.37-181.43
		c0-41.81-9.47-80.33-25.38-111c0-0.02-0.02-0.02-0.02-0.02c-1.15-2.21-2.33-4.39-3.54-6.51c45.74,17.29,82.24,58.28,98.63,110.46
		C1566.87,460.02,1556.26,454.95,1544,444.5z"/>
	<path class="st2" d="M1692.78,514.63c-35.18,14.1-79.16,8.6-113.34-12.81c-10.37-7.51-18.79-17.44-24.65-28.9
		c-1.9-3.69-3.52-7.52-4.85-11.49c6.01,9.86,14.02,18.37,23.55,24.86c2.91,1.98,5.95,3.77,9.14,5.35c0.11,0.07,0.25,0.13,0.38,0.2
		c-4.93-33.3-17.71-63.5-36.06-87.97c-1.56-1.09-3.09-2.26-4.55-3.47c-6.61-5.45-12.16-12.12-16.33-19.71
		c-14.42-13.26-30.91-23.67-48.82-30.43c1.22,2.12,2.4,4.3,3.54,6.51c0,0,0.02,0,0.02,0.01c10.99,21.2,18.92,46.15,22.74,73.34
		c3.4,6.46,7.19,12.67,11.32,18.63c1.38,1.98,2.77,4.01,4.19,6.06c9.15,13.29,18.83,27.57,30.43,38.26
		c17.59,16.22,25.18,21,46.53,28.97c24.82,9.27,59,12.36,89.18-2.76C1687.18,518.29,1690.92,515.61,1692.78,514.63z"/>
	<path class="st2" d="M1744.77,408.27c0,51.77-38.39,94.59-88.25,101.52c-4.67,0.66-9.43,1-14.27,1c-10.58,0-20.8-1.61-30.4-4.6
		c-0.03,0.02-0.07,0-0.08-0.02c-1-0.3-1.98-0.61-2.94-0.95c-0.1-0.03-0.2-0.07-0.28-0.1c-0.63-0.22-1.25-0.43-1.88-0.66
		c-9.2-3.22-20.69-7.81-27.37-11.01c-0.13-0.06-23.76-14.56-32.58-23.65c-11.44-11.78-22.69-22.65-33.15-38.89
		c-8.5-13.22-15.35-27.62-20.23-42.9c-0.18-0.51-0.35-1.03-0.5-1.54c-0.03-0.08-0.05-0.17-0.08-0.25c-0.07-0.2-0.12-0.4-0.18-0.6
		c-3.42-10.12-8.39-19.53-14.62-27.95c0-0.02-0.02-0.02-0.02-0.02c-18.65-25.26-48.67-41.66-82.5-41.66
		c-17.94,0-34.78,4.6-49.43,12.69c17.41-27.37,48.04-45.54,82.88-45.54c21.83,0,41.99,7.13,58.28,19.17
		c16.59,12.27,29.18,29.63,35.45,49.78c0.07,0.22,0.13,0.43,0.2,0.66c3.75,12.03,10.71,22.64,19.92,30.79
		c12.09,10.76,28,17.29,45.44,17.29c10.51,0,20.48-2.38,29.37-6.61c0.17-0.08,0.33-0.15,0.48-0.22c1.98-0.86,3.85-1.88,5.63-3.07
		c0.2-0.1,0.38-0.23,0.58-0.37c10.26-6.98,17.01-18.74,17.01-32.09c0-21.43-17.37-38.8-38.8-38.8c-8.57,0-16.49,2.77-22.92,7.51
		c17.34-13.44,39.1-21.43,62.72-21.43c3.09,0,6.13,0.13,9.15,0.42C1703.73,310.79,1744.77,354.76,1744.77,408.27z"/>
	<path class="st2" d="M1495.08,352.92v0.25c0.07,0.08,0.12,0.17,0.17,0.25L1495.08,352.92z M1495.08,352.92v0.25
		c0.07,0.08,0.12,0.17,0.17,0.25L1495.08,352.92z M1495.08,352.92v0.25c0.07,0.08,0.12,0.17,0.17,0.25L1495.08,352.92z"/>
	<path class="st2" d="M1657.66,358.69c0,17.54-10.94,33.69-25.48,43.56l-0.05,0.03l-0.05,0.05c-0.22,0.13-0.56,0.37-1,0.63
		c-2.29,1.51-4.78,2.84-7.39,3.99l-0.12,0.05c-11.11,5.28-23,7.96-35.4,7.96c-20.25,0-39.71-7.41-54.83-20.86
		c-11.23-9.95-19.53-22.79-24-37.14l-0.05-0.17l-0.05-0.15l-0.12-0.4c-5.25-16.84-16.03-31.97-30.35-42.59
		c-14.52-10.71-31.77-16.39-49.9-16.39c-9.68,0-19.46,1.18-28.53,3.49c-15.94,4.06-37.56,10.64-53.87,27.19
		c17.49-26.96,47.87-44.8,82.4-44.8c21.83,0,41.99,7.13,58.28,19.17c16.59,12.27,29.18,29.63,35.45,49.78
		c0.07,0.22,0.13,0.43,0.2,0.66c3.75,12.03,10.71,22.64,19.92,30.79c12.09,10.76,28,17.29,45.44,17.29
		c10.51,0,20.48-2.38,29.37-6.61c0.17-0.08,0.33-0.15,0.48-0.22c1.98-0.86,3.85-1.88,5.63-3.07c0.2-0.1,0.38-0.23,0.58-0.37
		c10.27-6.98,17.01-18.74,17.01-32.09c0-21.43-17.37-38.8-38.8-38.8c-8.57,0-16.49,2.77-22.92,7.51c1.63-1.26,3.29-2.47,4.98-3.64
		c0,0,0,0,0.02,0c24.58-11.36,38.54-12.04,54.18-3.6C1651.12,326.64,1657.66,343.53,1657.66,358.69z"/>
	<g>
		<path class="st2" d="M1708.88,313.59c-0.17-0.12-0.32-0.22-0.48-0.32c-24.96-29.47-65.61-43.34-104.86-36.36
			c-3.04,0.55-6.08,1.21-9.1,2.01c-0.53,0.2-1.08,0.42-1.64,0.66c-11.98,5.15-19.4,16.38-20.06,28.29
			c-9.82,6.81-16.99,18.05-16.46,29.42c-4.5-13.45,0.8-28.3,12.56-36.46c0.65-11.91,8.09-23.12,20.06-28.29
			c0.55-0.23,1.1-0.45,1.64-0.65c3.02-0.81,6.06-1.48,9.1-2.01C1641.86,262.38,1684.67,279.37,1708.88,313.59z"/>
		<path class="st2" d="M1708.4,313.27c-21.44-14.62-48.02-21.38-74.83-18.44c-8.8,0.96-17.62,2.97-26.29,6.1
			c-2.24,0.8-4.47,1.68-6.69,2.64c-9.83,4.24-18.75,9.67-26.68,16.05c-6.59,5.32-12.49,11.28-17.62,17.74
			c0-0.02-0.02-0.05-0.02-0.07c-0.53-11.36,6.64-22.61,16.46-29.42c0.66-11.91,8.09-23.14,20.06-28.29
			c0.56-0.25,1.11-0.47,1.64-0.66c3.02-0.8,6.06-1.46,9.1-2.01C1642.79,269.93,1683.44,283.8,1708.4,313.27z"/>
	</g>
	<path class="st2" d="M1268.01,515.45"/>
	<path class="st2" d="M1364.25,599.34"/>
</g>
<g>
	<path class="st2" d="M2527.97,395c7.57,6.99,14.57,14.75,20.88,23.19c-1.56-1.1-3.09-2.26-4.55-3.47
		C2537.69,409.26,2532.14,402.59,2527.97,395z"/>
	<path class="st2" d="M2741.46,523.32c-39.02,43.84-104.51,50.75-154.34,19.21c-2.53,97.65-71.74,175.91-156.73,175.91
		c-83.09,0-151.07-74.74-156.45-169.29c17.82,67.02,61.6,114.38,112.78,114.38c67.04,0,121.37-81.22,121.37-181.43
		c0-9.53-0.5-18.89-1.45-28.02c-0.34-3.25-0.74-6.46-1.19-9.65c3.4,6.46,8.27,11.76,12.4,17.72c11.03,15.88-10.92-12.41,4.42-0.77
		c-2.02-3.62,24.88,39.71,53.5,55.95c3.05,1.76,6.16,3.44,9.31,5.01c0.12,0.07,0.27,0.14,0.4,0.2v0.02
		c8.61,4.27,17.59,7.89,26.89,10.8c0.65,0.21,1.27,0.4,1.9,0.59c0.1,0.04,0.2,0.07,0.3,0.1c0.96,0.3,1.96,0.57,2.97,0.84
		c0.02,0.01,0.05,0.03,0.08,0.01c9.69,2.66,19.95,3.92,30.53,3.56c4.84-0.17,9.59-0.67,14.22-1.5c8.43-1.47,16.49-3.96,24.06-7.35
		c1.93-0.86,3.83-1.78,5.69-2.76c0.02,0,0.03,0,0.05-0.02c16.06-6.43,30.81-16.51,42.98-30.2c22.99-25.83,32.18-59.29,28.28-91.82
		C2777.67,444.84,2770.82,490.34,2741.46,523.32z"/>
	<path class="st15" d="M2545.74,457.93c1.54-0.55,3.12-0.86,4.7-0.98c-4.72-9.8-10.31-19.04-16.73-27.57
		c-4.82-6.41-10.02-12.34-15.58-17.76c1.91,7.36,3.52,14.9,4.82,22.56c2.62,15.51,3.97,31.56,3.97,47.92
		c0,52.15-13.75,101.44-38.72,138.76c-26.53,39.66-62.64,63.76-101.49,61.51c-45.78-2.66-60.58-20.96-84.53-40.88
		c-16.14-26.43-26.31-58.08-28.25-92.33c17.82,67.02,61.61,114.38,112.78,114.38c67.04,0,121.37-81.22,121.37-181.43
		c0-41.81-9.47-80.33-25.38-111c0-0.02-0.02-0.02-0.02-0.02c-1.15-2.21-2.33-4.39-3.54-6.51c45.74,17.29,82.24,58.28,98.63,110.46
		C2568.62,473.45,2558,468.38,2545.74,457.93z"/>
	<path class="st16" d="M2746.52,421.7c0,51.77-38.39,94.59-88.25,101.52c-4.67,0.66-9.43,1-14.27,1c-10.58,0-20.8-1.61-30.4-4.6
		c-0.03,0.02-0.07,0-0.08-0.02c-1-0.3-1.98-0.61-2.94-0.95c-0.1-0.03-0.2-0.07-0.28-0.1c-0.63-0.22-1.25-0.43-1.88-0.66
		c-9.2-3.22-20.69-7.81-27.37-11.01c-0.13-0.06-23.76-14.56-32.58-23.65c-11.44-11.78-22.69-22.65-33.15-38.89
		c-8.5-13.22-15.35-27.62-20.23-42.9c-0.18-0.51-0.35-1.03-0.5-1.54c-0.03-0.08-0.05-0.17-0.08-0.25c-0.07-0.2-0.12-0.4-0.18-0.6
		c-3.42-10.12-8.39-19.53-14.62-27.95c0-0.02-0.02-0.02-0.02-0.02c-18.65-25.26-48.67-41.66-82.5-41.66
		c-17.94,0-34.78,4.6-49.43,12.69c17.41-27.37,48.04-45.54,82.88-45.54c21.83,0,41.99,7.13,58.28,19.17
		c16.59,12.27,29.18,29.63,35.45,49.78c0.07,0.22,0.13,0.43,0.2,0.66c3.75,12.03,10.71,22.64,19.92,30.79
		c12.09,10.76,28,17.29,45.44,17.29c10.51,0,20.48-2.38,29.37-6.61c0.17-0.08,0.33-0.15,0.48-0.22c1.98-0.86,3.85-1.88,5.63-3.07
		c0.2-0.1,0.38-0.23,0.58-0.37c10.26-6.98,17.01-18.74,17.01-32.09c0-21.43-17.37-38.8-38.8-38.8c-8.57,0-16.49,2.77-22.92,7.51
		c17.34-13.44,39.1-21.43,62.72-21.43c3.09,0,6.13,0.13,9.15,0.42C2705.48,324.22,2746.52,368.18,2746.52,421.7z"/>
	<path class="st2" d="M2496.83,366.34v0.25c0.07,0.08,0.12,0.17,0.17,0.25L2496.83,366.34z M2496.83,366.34v0.25
		c0.07,0.08,0.12,0.17,0.17,0.25L2496.83,366.34z M2496.83,366.34v0.25c0.07,0.08,0.12,0.17,0.17,0.25L2496.83,366.34z"/>
	<path class="st17" d="M2659.41,372.12c0,17.54-10.94,33.69-25.48,43.56l-0.05,0.03l-0.05,0.05c-0.22,0.13-0.56,0.37-1,0.63
		c-2.29,1.51-4.78,2.84-7.39,3.99l-0.12,0.05c-11.11,5.28-23,7.96-35.4,7.96c-20.25,0-39.71-7.41-54.83-20.86
		c-11.23-9.95-19.53-22.79-24-37.14l-0.05-0.17l-0.05-0.15l-0.12-0.4c-5.25-16.84-16.03-31.97-30.35-42.59
		c-14.52-10.71-31.77-16.39-49.9-16.39c-9.68,0-19.46,1.18-28.53,3.49c-15.94,4.06-37.56,10.64-53.87,27.19
		c17.49-26.96,47.87-44.8,82.4-44.8c21.83,0,41.99,7.13,58.28,19.17c16.59,12.27,29.18,29.63,35.45,49.78
		c0.07,0.22,0.13,0.43,0.2,0.66c3.75,12.03,10.71,22.64,19.92,30.79c12.09,10.76,28,17.29,45.44,17.29
		c10.51,0,20.48-2.38,29.37-6.61c0.17-0.08,0.33-0.15,0.48-0.22c1.98-0.86,3.85-1.88,5.63-3.07c0.2-0.1,0.38-0.23,0.58-0.37
		c10.27-6.98,17.01-18.74,17.01-32.09c0-21.43-17.37-38.8-38.8-38.8c-8.57,0-16.49,2.77-22.92,7.51c1.63-1.26,3.29-2.47,4.98-3.64
		c0,0,0,0,0.02,0c24.58-11.36,38.54-12.04,54.18-3.6C2652.87,340.07,2659.41,356.95,2659.41,372.12z"/>
	<path class="st17" d="M2710.63,327.01c-0.17-0.12-0.32-0.22-0.48-0.32c-24.96-29.47-65.61-43.34-104.86-36.36
		c-3.04,0.55-6.08,1.21-9.1,2.01c-0.53,0.2-1.08,0.42-1.64,0.66c-11.98,5.15-19.4,16.38-20.06,28.29
		c-9.82,6.81-16.99,18.05-16.46,29.42c-4.5-13.45,0.8-28.3,12.56-36.46c0.65-11.91,8.09-23.12,20.06-28.29
		c0.55-0.23,1.1-0.45,1.64-0.65c3.02-0.81,6.06-1.48,9.1-2.01C2643.61,275.8,2686.41,292.8,2710.63,327.01z"/>
	<path class="st2" d="M2710.15,326.7c-21.44-14.62-48.02-21.38-74.83-18.44c-8.8,0.96-17.62,2.97-26.29,6.1
		c-2.24,0.8-4.47,1.68-6.69,2.64c-9.83,4.24-18.75,9.67-26.68,16.05c-6.59,5.32-12.49,11.28-17.62,17.74c0-0.02-0.02-0.05-0.02-0.07
		c-0.53-11.36,6.64-22.61,16.46-29.42c0.66-11.91,8.09-23.14,20.06-28.29c0.56-0.25,1.11-0.47,1.64-0.66
		c3.02-0.8,6.06-1.46,9.1-2.01C2644.54,283.36,2685.18,297.23,2710.15,326.7z"/>
	<path class="st2" d="M2269.76,528.88"/>
	<path class="st2" d="M2366,612.77"/>
	<text transform="matrix(1 0 0 1 2596.8721 607.6729)"><tspan x="0" y="0" class="st2" style="font-family:'MaragsaDisplay'; font-size:22.6772px;">rogram Pengenalan </tspan><tspan x="0" y="27.21" class="st2" style="font-family:'MaragsaDisplay'; font-size:22.6772px;">Lingkungan Kampus</tspan><tspan x="0" y="49.89" class="st2" style="font-family:'MaragsaDisplay'; font-size:22.6772px;">2021</tspan></text>
</g>
</svg>
